/* XPM */
static char *_04091d454e04ca9fad43f8fd74e8b4bAQ7cQOHsYvmdVJIo[] = {
/* columns rows colors chars-per-pixel */
"32 32 183 2 ",
"   c #391F21",
".  c #371E20",
"X  c #3D2224",
"o  c #32222A",
"O  c #372126",
"+  c #312C3D",
"@  c #472825",
"#  c #4A2925",
"$  c #412B2D",
"%  c #452427",
"&  c #562F28",
"*  c #562C26",
"=  c #4E322F",
"-  c #59302A",
";  c #4A2C33",
":  c #552B3D",
">  c #582D3E",
",  c #473032",
"<  c #5A363B",
"1  c #602E29",
"2  c #63302A",
"3  c #72392F",
"4  c #6C3A31",
"5  c #733B31",
"6  c #75383D",
"7  c #6F4132",
"8  c #7D4334",
"9  c #784A39",
"0  c #132F53",
"q  c #173354",
"w  c #2E3148",
"e  c #2D3D59",
"r  c #043767",
"t  c #033769",
"y  c #113E69",
"u  c #5B3241",
"i  c #7F2F4C",
"p  c #603146",
"a  c #6C3651",
"s  c #6E3852",
"d  c #703A54",
"f  c #7F3652",
"g  c #2D4A69",
"h  c #365570",
"j  c #794642",
"k  c #785B55",
"l  c #655D5D",
"z  c #40566A",
"x  c #415367",
"c  c #565963",
"v  c #7C7777",
"b  c #7B7B7B",
"n  c #727272",
"m  c #6F676A",
"M  c #844434",
"N  c #844B37",
"B  c #844C38",
"V  c #8B4936",
"C  c #934F39",
"Z  c #8C503A",
"A  c #87553F",
"S  c #9B573E",
"D  c #9D583E",
"F  c #93553D",
"G  c #A1593F",
"H  c #813351",
"J  c #A45C41",
"K  c #9D6A50",
"L  c #AD6344",
"P  c #A86648",
"I  c #B66947",
"U  c #BB6D4A",
"Y  c #B06444",
"T  c #BA714E",
"R  c #B3704F",
"E  c #AC7251",
"W  c #B57451",
"Q  c #B87450",
"!  c #B97C57",
"~  c #B77A55",
"^  c #8F4865",
"/  c #88756F",
"(  c #827472",
")  c #8C7A74",
"_  c #827B7A",
"`  c #8A7671",
"'  c #907C77",
"]  c #C06F4A",
"[  c #C4744D",
"{  c #C17852",
"}  c #CD8559",
"|  c #D58B5E",
" . c #DE9262",
".. c #E19563",
"X. c #E49866",
"o. c #E79B68",
"O. c #004C86",
"+. c #004D88",
"@. c #005A98",
"#. c #005A97",
"$. c #065188",
"%. c #2E6485",
"&. c #2D6688",
"*. c #2F739A",
"=. c #0071B2",
"-. c #1A7DB1",
";. c #1B73A7",
":. c #5A7F97",
">. c #7A7F85",
",. c #007EC1",
"<. c #2E8FB9",
"1. c #308FB9",
"2. c #3A92B9",
"3. c #3590B9",
"4. c #4B96B8",
"5. c #70A1B6",
"6. c #1C90C4",
"7. c #0097DB",
"8. c #0198DC",
"9. c #0B9BDC",
"0. c #149EDC",
"q. c #199FDC",
"w. c #088ECC",
"e. c #2795C7",
"r. c #2D9ACC",
"t. c #1AA1DE",
"y. c #20A1DC",
"u. c #2AA3DC",
"i. c #3AA8DD",
"p. c #34A6DC",
"a. c #17A1E0",
"s. c #43AADC",
"d. c #4AADDC",
"f. c #53AFDD",
"g. c #5BB1DC",
"h. c #55B0DC",
"j. c #64B4DD",
"k. c #6CB6DD",
"l. c #74B8DD",
"z. c #7CBBDD",
"x. c #71B7DD",
"c. c #7ABCE0",
"v. c #66B7E0",
"b. c #848484",
"n. c #8B8384",
"m. c #8B8B8B",
"M. c #958A85",
"N. c #8F8F90",
"B. c #9A9A9B",
"V. c #969899",
"C. c #A09D9D",
"Z. c #9CA1A3",
"A. c #ACABAB",
"S. c #A6A6A6",
"D. c #ABB1B4",
"F. c #B3B4B4",
"G. c #BBBCBC",
"H. c #B7B8B8",
"J. c #81BCDE",
"K. c #8ABEDD",
"L. c #83BFE0",
"P. c #95C1DD",
"I. c #9FC4DD",
"U. c #A2C5DD",
"Y. c #ACC8DE",
"T. c #B3C9DD",
"R. c #C4C4C3",
"E. c #CECECE",
"W. c #C6CFDD",
"Q. c #D4D5D5",
"!. c #D9D9D9",
"~. c #D0D2DD",
"^. c #DFE0E0",
"/. c #E4E4E4",
"(. c #E7E8E8",
"). c #E9EAEA",
"_. c #E8E8E7",
"`. c #F7F7F7",
"'. c #F5F5F5",
"]. c gray95",
"[. c #F9F9F9",
"{. c gray99",
"}. c #F8F7F7",
/* pixels */
"9 E E E A * # - - - - - - - - - - - - - - - - - - - & * K E E E ",
"9 X.o.o.W 8 ~ ! ! ! ! ! ! ! ! ! ! ! ! ! ! ! ! ! ! ! P 8 | X.X.X.",
"7 [ [ [ J S  .....................................X.} V U [ [ { ",
"7 F U [ Y G L L J D D D D J Y L L L L L L J D D D D D G U [ L F ",
"& # I T [ I V V M 3 3 1 - 2 3 M V M 3 3 M 5 5 5 3 3 V U U [ F . ",
"# # L T U P 5 4 k ` ` ( / ( ( ) ' ) ( ( ) ' ` ` 9 4 N T T U Z . ",
"% X < / M.n.v _ C.G.G.^._._.).).(.(.(.(.(.Q.H.H.m._ _ M.M.k = . ",
"H $ n.S.F.A.m.G.^.'.`.[.[.]./.[.{.]./.`.[.[.'.].Q.Z.N.F.F.C.m . ",
"^ , A.H.H.A.n.R.).[.[.`.`.).Q.Q.Q.Q.!.'.}.}.[.}.^.A.N.F.F.H.n.  ",
"^ , A.F.D.S.b.b m.B.B.V.B.B.B.b.b.m.B.V.V.V.B.B.b.b m.F.A.H.n.  ",
"f , B.n.b v n B.R.!.!.!.!.!.!.!.!.!.!.!.!.!.!.Q.H.m.n v v V._   ",
"i X v A.R.G.R.(.[.{.{.[.{.{.{.{.{.{.{.{.{.{.{.{.[.!.G.G.R.B.l   ",
"i , S.E._.}.[.Q.R.R.R.R.R.R.R.R.R.R.R.R.R.R.R.R.R.^.[.[.^.R.n.  ",
"i , A.C.Z.F.D.4.1.1.1.2.2.2.2.2.2.2.2.2.2.3.1.1.<.5.F.A.V.S.n.  ",
"i $ 5.*.-.e.r.t.t.t.t.k.J.z.z.z.J.J.L.J.J.f.0.t.q.r.r.6.;.:.m . ",
"i o 0 $.=.y.Y.K.z.z.z.u.t.t.t.t.q.q.q.q.q.s.L.L.c.P.K.7.=.$.q . ",
"i o r @.,.0.x.j.u.q.f.9.7.8.8.8.7.8.8.8.7.u.d.9.d.k.g.7.=.O.0 . ",
"i o r @.,.8.8.U.j.0.f.9.8.8.8.8.8.8.8.8.7.u.d.8.U.j.7.7.=.O.0 . ",
"i o t @.,.8.8.U.j.7.7.8.7.8.y.K.K.j.0.7.8.7.7.9.U.g.7.7.=.O.0   ",
"i o t @.,.8.8.I.j.8.8.8.8.u.K.W.~.T.x.8.8.8.8.8.U.j.7.7.=.O.0   ",
"i o t @.,.8.8.I.j.8.8.8.7.8.0.x.K.g.8.8.8.8.8.8.U.j.7.7.=.O.0   ",
"H . t @.,.8.9.U.j.7.8.7.8.8.8.8.8.8.8.8.8.8.8.9.U.j.7.7.=.O.0   ",
"i o r @.,.8.0.K.g.0.l.0.8.8.8.8.8.8.8.8.7.i.j.8.K.j.9.7.=.O.0   ",
"i o r @.,.y.U.g.p.p.s.9.8.8.8.8.7.7.7.7.7.y.s.u.s.J.J.7.=.O.0   ",
"i o t @.,.a.c.c.c.z.l.d.s.s.s.s.s.s.s.s.s.g.c.c.l.K.v.8.=.+.0 O ",
"i   w g h &.%.&.%.*.8.f.k.j.j.j.j.j.j.j.v.p.w.&.%.%.%.%.g e + O ",
"j E Q Q Q Q Q Q T K x h z z z z z z z z z x c W U W Q Q Q Q W E ",
"9 o.o.X.X.X.X.X.o.} M [ } } } } } } } } } P C  .X.X...X.X...X.X.",
"4 [ [ [ [ [ [ [ [ U G |  ... ........... .{ J [ [ [ [ [ [ [ [ [ ",
"s Z U U J B B B N B N B B B V N B B N N N M M N B B B B I [ L B ",
"H # I [ B   u u p u u u u : u : : u u u : ; : : u u ; % L [ F . ",
"i # I [ B % s d s s s s a a s a a a a a a a a a a a u X L [ F . "
};
