/* XPM */
static char *_6443c4e8fdc4a1ea7f38b25cf4fc8ddNMID4mdcpGeEyBVf[] = {
/* columns rows colors chars-per-pixel */
"32 32 65 1 ",
"  c #C0A0A8",
". c #C1A0A9",
"X c #C1A1A9",
"o c #BE9FA6",
"O c #B19499",
"+ c #A38386",
"@ c #BC9CA3",
"# c #C2A2AA",
"$ c #B5989E",
"% c #A58B8E",
"& c #937575",
"* c #937475",
"= c #A7878B",
"- c #AC8C91",
"; c #BA9AA1",
": c #BA9BA2",
"> c #A88F92",
", c #A78D90",
"< c #927374",
"1 c #8D6D6D",
"2 c #B19197",
"3 c #BA9CA3",
"4 c #AA9094",
"5 c #A78E91",
"6 c #A98F92",
"7 c #B99BA2",
"8 c #B99BA1",
"9 c #A99093",
"0 c #B89BA1",
"q c #BFA0A8",
"w c #BF9FA7",
"e c #BA9CA2",
"r c #BC9DA4",
"t c #B4959B",
"y c #B19196",
"u c #B6969C",
"i c #AD9296",
"p c #967979",
"a c #8B6B6B",
"s c #8C6C6B",
"d c #8B6B6A",
"f c #9A7A7C",
"g c #BB9BA2",
"h c #BFA0A7",
"j c #99787A",
"k c #9F8486",
"l c #A58C8E",
"z c #A68C8F",
"x c #9D8182",
"c c #9A797B",
"v c #B2969B",
"b c #A88C90",
"n c #A58C8F",
"m c #A98D91",
"M c #BD9EA5",
"N c #B3979C",
"B c #AD9397",
"V c #AE9398",
"C c #B6999F",
"Z c #AB9195",
"A c #B799A0",
"S c #B4989D",
"D c #AF9499",
"F c #B09499",
"G c white",
/* pixels */
"                                ",
"                                ",
"                                ",
"                                ",
"                                ",
"                                ",
"                                ",
"                                ",
"           .XX                  ",
"          oO++@#                ",
"         o$%&*=-;               ",
"         :>>>,<12X              ",
"         34>>>567               ",
"          89>>90q               ",
"          w3ee3w                ",
"                                ",
"                 XXXXX          ",
"                rty2yu          ",
"               ;ipasdfg         ",
"         h    wjk,llzxcw        ",
"        7v    wbz>>>>nm         ",
"        M$Nh  hB>>>>>>V         ",
"         MC    CZ5>>5ZA         ",
"                SDFFD$          ",
"                                ",
"                                ",
"                                ",
"                                ",
"                                ",
"                                ",
"                                ",
"                                "
};
