/* XPM */
static char *_7e0a6a1487e4503b7a75d7dd3510cfbMH2LFWgPGbg5WrBW[] = {
/* columns rows colors chars-per-pixel */
"32 32 231 2 ",
"   c #050101",
".  c #090101",
"X  c #0C0804",
"o  c #0A080B",
"O  c #1C0402",
"+  c #170908",
"@  c #1B140E",
"#  c #1C1513",
"$  c #1C1B15",
"%  c #191618",
"&  c #130E13",
"*  c #240402",
"=  c #290101",
"-  c #240907",
";  c #330C0A",
":  c #26120E",
">  c #33110F",
",  c #240D13",
"<  c #280E14",
"1  c #350E11",
"2  c #231312",
"3  c #2A1313",
"4  c #24131B",
"5  c #2C1E1D",
"6  c #271919",
"7  c #341212",
"8  c #3D1418",
"9  c #252219",
"0  c #2B1F22",
"q  c #2C2123",
"w  c #272529",
"e  c #342928",
"r  c #3F3D3E",
"t  c #6A1518",
"y  c #45242A",
"u  c #5F2420",
"i  c #583B3B",
"p  c #4D3A3E",
"a  c #723F3E",
"s  c #653B3C",
"d  c #4B403E",
"f  c #55423B",
"g  c #62453E",
"h  c #4B3F41",
"j  c #713F40",
"k  c #4C4344",
"l  c #4C4642",
"z  c #514445",
"x  c #5D4644",
"c  c #554A45",
"v  c #5A4949",
"b  c #5A524C",
"n  c #5B594B",
"m  c #644542",
"M  c #6C4141",
"N  c #634E4B",
"B  c #6C4D4B",
"V  c #674746",
"C  c #704845",
"Z  c #6A524D",
"A  c #69574C",
"S  c #78574E",
"D  c #674B51",
"F  c #6D5453",
"G  c #625A53",
"H  c #6D5B54",
"J  c #6A5759",
"K  c #735D53",
"L  c #7D5D54",
"P  c #765459",
"I  c #725D5A",
"U  c #7A5D5A",
"Y  c #785559",
"T  c #7B604E",
"R  c #6C635D",
"E  c #756455",
"W  c #7C6256",
"Q  c #74645C",
"!  c #7C635B",
"~  c #736A5C",
"^  c #7B6A5B",
"/  c #7B5E63",
"(  c #775E62",
")  c #6C6665",
"_  c #756563",
"`  c #7D6563",
"'  c #756B63",
"]  c #7D6A63",
"[  c #7C6B6C",
"{  c #776A69",
"}  c #7B7164",
"|  c #767561",
" . c #7D7876",
".. c #8D3637",
"X. c #97383D",
"o. c #8D292B",
"O. c #AA332F",
"+. c #A92A32",
"@. c #A43238",
"#. c #A9353A",
"$. c #A33A3F",
"%. c #BD3432",
"&. c #BC3832",
"*. c #B73C3D",
"=. c #B02E25",
"-. c #C3383A",
";. c #C2352E",
":. c #AA443F",
">. c #883F48",
",. c #B23B40",
"<. c #B23440",
"1. c #A63C40",
"2. c #C53A42",
"3. c #835E5B",
"4. c #875A57",
"5. c #944D50",
"6. c #A7444B",
"7. c #BA464A",
"8. c #AA4D51",
"9. c #A4575A",
"0. c #B74E52",
"q. c #826355",
"w. c #83635C",
"e. c #87665B",
"r. c #B8655D",
"t. c #835D61",
"y. c #895E61",
"u. c #B95A62",
"i. c #846564",
"p. c #846A64",
"a. c #8A6B62",
"s. c #856A6A",
"d. c #896867",
"f. c #916365",
"g. c #85716C",
"h. c #89736B",
"j. c #877474",
"k. c #9B777A",
"l. c #957072",
"z. c #A46868",
"x. c #BA676D",
"c. c #A9787A",
"v. c #B47B7D",
"b. c #B47276",
"n. c #C15359",
"m. c #C14A4E",
"M. c #CB5C63",
"N. c #DF7A7E",
"B. c #D1676C",
"V. c #E6756E",
"C. c #9F807E",
"Z. c #D2837F",
"A. c #DC7C88",
"S. c #ED7C82",
"D. c #E57D86",
"F. c #9F8F8F",
"G. c #969295",
"H. c #989497",
"J. c #AC858B",
"K. c #BD8385",
"L. c #B88489",
"P. c #A59598",
"I. c #BA9396",
"U. c #A18996",
"Y. c #B1A1A1",
"T. c #C28482",
"R. c #CC8585",
"E. c #CF8C84",
"W. c #C48389",
"Q. c #C3898D",
"!. c #CA878A",
"~. c #D48A85",
"^. c #D4858B",
"/. c #DB868C",
"(. c #D4898B",
"). c #DB8A8B",
"_. c #D98584",
"`. c #CB918F",
"'. c #C28A90",
"]. c #CB8C94",
"[. c #DD8C93",
"{. c #D48C94",
"}. c #C9969A",
"|. c #DB9395",
" X c #D5949A",
".X c #D7989B",
"XX c #D09087",
"oX c #E3858B",
"OX c #E7858A",
"+X c #F0838A",
"@X c #E1908C",
"#X c #E68D94",
"$X c #EB8A92",
"%X c #D4A19E",
"&X c #C69DA2",
"*X c #CD9CA4",
"=X c #D69DA3",
"-X c #D6A4A8",
";X c #D7B3B3",
":X c #C8B7B5",
">X c #E5A7AA",
",X c #F5B7B5",
"<X c #F2A7AD",
"1X c #C9CAC8",
"2X c #D6D5D6",
"3X c #D4CDCC",
"4X c #E2CCCA",
"5X c #E5C7C5",
"6X c #FCC8C8",
"7X c #E8D1CD",
"8X c #FCD2CF",
"9X c #FFD3D5",
"0X c #FEDCDA",
"qX c #F8D8D6",
"wX c #FCE4D8",
"eX c #ECE9EC",
"rX c #FEE5E4",
"tX c #FFEDE3",
"yX c #F0E7EA",
"uX c #FBE9EA",
"iX c #FFF3EC",
"pX c #FFF9ED",
"aX c #FBF2EA",
"sX c #FFEDF4",
"dX c #FFF3F3",
"fX c #FEFCF5",
"gX c #FEF6FB",
"hX c #F9FFFE",
"jX c #FFFDFE",
"kX c #FEFCFB",
"lX c #F3F9F7",
/* pixels */
"T q.H Q ^ ' H p.E ! ! S p.Q ` ` ! ! ! ! ! w.! ! Q _ { ( J ] W W ",
"T e.^ p.' ' I ' g.a.a.L p.U ` _ ` { ] w.^ w.] ] ` _ [ s.p.s.L L ",
"W w.! Q v N N F m m B V Z N G G b b b b N N N D J v D D 4.y.4.4.",
"! w.! N 3 , 3 - 7 ; 7 1 2 @ # & % $ # 2 2 2 2 2 4 , 4 , h 3.f.f.",
"U / s.D - < y 8 8 8 8 1 3 q e w w 0 q 0 5 0 q 0 % w w o h [ [ F ",
"w.U s.D < m J.J.'.I.Q.I.I.3XeXeXeXeXyXeXyXyXyXeXhXlXG.% h { { Q ",
"s.! i.x + D -X=X].{.{.].I.qXkXkXhXhXhXhXkXkXkXkXlXgXH.o k j.' ! ",
"Q K j.D , j I.A.A.[.[.^.Q.qXgXdXhXhXhXlXfXfXkXkXgXgXG.. z ] U w.",
"E ^ h.H O s >XR.#XoX$X$X(.0XdXkXfXhXkXfXfXlXkXfXkXhXP.. v g.L W ",
"E E A N f C 5.x.B.M.B.B.x.<X6X5X4X4X4X4X7X5X5X7X:XY.j.e x s.w.q.",
"^ E ^ ^ h.C = t 1.#.#.@.X.b.L.L.L.A.K.W.!.Z.v.}.Y * y k.h.S L 4.",
"^ E p.^ g M u ..0.m.7.7.8.R.-X-X*X-X>X`.%X-X.X;XJ.h m F Y K e.W ",
"W T ] N - C `.~.N.S.S.S.oX6XdXiXaXfXiXwXtXiXiXiXiXkXG.  f | ~ ^ ",
"! p.p.Z - g -XR.oX+XS.$X/.9XdXtXiXtXtXpXiXrXiXiXaXkXG.. b ) ~ Q ",
"3.i.U N O g }.XXoXD.D.OXA.6XdX;X}.x.b.9X6Xz.c.&X5XsXP., p s.j.H ",
"t.U i.P - g %XR._._.oX@XQ.qXgX&X/.>.6.rX6X>.5.{.-XgXU.o v s.F d.",
"_ ! d.B = a  X(.|.Z.Z.~.`.9XsXb.n.<.,.V.V.&.#.u.K.gXG.o k s.t.S ",
"~ Q i.B = a |.(.XXXX).~.T.9XsXz.<.2.O.O.=.=.-.6.v.gXG.o h [ e.e.",
"Q Q s.C = M |./.Z.XX@X~.T.0XdX9.+.2.%.%.;.&.&.o.v.fXH.X z ] 4.e.",
"Q Q i.B = M |.(.XXZ.oX_.!.rXsX9.1.2.%.;.;.&.:...v.dXP.. c ] 4.q.",
"! ! i.B * M |.^.@X_.OXoXT.0XuXv.1.,.-.-.;.%.:.6.`.dXF.. c p.E q.",
"! ! i.B O V  X/.).).OXOXT.9XfX8X6Xn.+.-.*.+.r.wX7XdXP.. c ] W q.",
"3.U a.B O m =X^.^.OX+XOXW.0XfXfX0X9.@.*.*.X.z.tXiXdXP.. c Q W W ",
"q.w.i.B O m  X^.^.#XD.oXQ.0XtXfXaX,X<X7.8.,X5XpXiXgXP.  c ' ^ W ",
"3.3.w.B O g .X]././.A.#X'.qXfXfXgXdXrX>.5.sXfXdXyXkXH.. l { R ! ",
"w.e.p.Z + x }.].{.|.A.[.L.qXpXlXlXuXrX&X&XdXfXlXhXkXH.  k [ s.s.",
"L w.! V @ V *X=X`..X{.|.I.pXkXfXlXhXgXgXgXhXgXhXlXkXH.& k [ ( P ",
"W ! i.Z 2 p k.c.c.c.b.v.J.Y.3X1X1X3X1X3X2X1X2X1X2X2X .% h s./ i.",
"E W p.B - : 8 1 > > ; ; - 6 6 6 $ $ $ & & 4 4 % X $ @ X v s.` t.",
"E K W N 5 5 7 1 3 : ; > : # & 4 6 @ $ $ 4 4 4 4 9 9 $ $ f U L i.",
"} W i.U v I P U G A A H ~ R I ( P K G ) ) P Y P R G n A K a.4.4.",
"E A ! s._ j./ / { } ] Q ' ' _ ` t.g.) ) [ t.l.t.! | | ~ W a.4.4."
};
