/* XPM */
static char *c48f24dcf67e4a78e67b9337eb937080r2JOk6YXv2qMmCQA[] = {
/* columns rows colors chars-per-pixel */
"30 30 181 2 ",
"   c #2D2B2F",
".  c #302E2F",
"X  c #33352F",
"o  c #2A2B31",
"O  c #3F273E",
"+  c #2C3A35",
"@  c #373F30",
"#  c #462D3C",
"$  c #4A2E3E",
"%  c #4E303E",
"&  c #5C3D36",
"*  c #54333C",
"=  c #5B363F",
"-  c #6E3E3E",
";  c #63393B",
":  c #723F35",
">  c #713F3E",
",  c #3F432E",
"<  c #2D4738",
"1  c #344B36",
"2  c #384532",
"3  c #2F513B",
"4  c #345B3C",
"5  c #37643D",
"6  c #68541F",
"7  c #735E1D",
"8  c #7F651A",
"9  c #5E4D22",
"0  c #534B27",
"q  c #5D5224",
"w  c #5F4233",
"e  c #46422A",
"r  c #6D4E2C",
"t  c #675424",
"y  c #765727",
"u  c #735429",
"i  c #7A522B",
"p  c #7F5C28",
"a  c #634730",
"s  c #644830",
"d  c #744134",
"f  c #7B4433",
"g  c #7E463D",
"h  c #774538",
"j  c #795436",
"k  c #5D6D2B",
"l  c #5D742E",
"z  c #517234",
"x  c #4C6832",
"c  c #4D2F40",
"v  c #502F43",
"b  c #4F3041",
"n  c #533242",
"m  c #5A3443",
"M  c #653941",
"N  c #356940",
"B  c #377543",
"V  c #377A45",
"C  c #3B7C44",
"Z  c #3A7241",
"A  c #6E4149",
"S  c #7E4D48",
"D  c #896E17",
"F  c #8D6D1E",
"G  c #9D7919",
"H  c #987A13",
"J  c #A37C18",
"K  c #894B2E",
"L  c #954F2D",
"P  c #865B26",
"I  c #8B562A",
"U  c #95512D",
"Y  c #9B5729",
"T  c #834930",
"R  c #8B4D37",
"E  c #844839",
"W  c #884A38",
"Q  c #914F31",
"!  c #965438",
"~  c #AB5B2C",
"^  c #A65B27",
"/  c #B25E29",
"(  c #A25731",
")  c #836521",
"_  c #896425",
"`  c #88612D",
"'  c #936C22",
"]  c #9D6936",
"[  c #A66C26",
"{  c #BB6525",
"}  c #BE7C27",
"|  c #BD7B3C",
" . c #B16D3B",
".. c #D66F1F",
"X. c #DD731F",
"o. c #E4761E",
"O. c #E7781E",
"+. c #EC7A1D",
"@. c #F47E1B",
"#. c #FA7E1A",
"$. c #C36724",
"%. c #CC6B25",
"&. c #C16629",
"*. c #C66824",
"=. c #D46E23",
"-. c #DC7220",
";. c #DF7A2E",
":. c #CB6F32",
">. c #C36A3E",
",. c #C9783D",
"<. c #D77B3D",
"1. c #DB7D3B",
"2. c #DB7C37",
"3. c #E37620",
"4. c #E57922",
"5. c #EC7C23",
"6. c #EA7E29",
"7. c #E57D2D",
"8. c #F17F21",
"9. c #E07D33",
"0. c #854D47",
"q. c #8B534B",
"w. c #854A52",
"e. c #975951",
"r. c #A55C54",
"t. c #97614E",
"y. c #BB6E42",
"u. c #B66F4D",
"i. c #B86543",
"p. c #A46346",
"a. c #C2774F",
"s. c #CD7A48",
"d. c #CF7B45",
"f. c #D17B44",
"g. c #D07C49",
"h. c #CD7E51",
"j. c #4C8A3F",
"k. c #5C8433",
"l. c #5A963B",
"z. c #669A35",
"x. c #6AA437",
"c. c #6FA934",
"v. c #72AB34",
"b. c #75B234",
"n. c #3A8145",
"m. c #458341",
"M. c #AE8B0E",
"N. c #B28E0D",
"B. c #BE960B",
"V. c #B7900E",
"C. c #A48114",
"Z. c #AB8414",
"A. c #B28A11",
"S. c #BF9119",
"D. c #CA9F07",
"F. c #C1970A",
"G. c #C39A09",
"H. c #C99D0A",
"J. c #C59714",
"K. c #FF8515",
"L. c #FA811A",
"P. c #F7801A",
"I. c #EF9016",
"U. c #FF9713",
"Y. c #E78C18",
"T. c #CCA106",
"R. c #CDA108",
"E. c #D1A505",
"W. c #DDAD06",
"Q. c #D4A509",
"!. c #EEB907",
"~. c #E2B106",
"^. c #F2BC06",
"/. c #CF8B22",
"(. c #C88624",
"). c #ED812D",
"_. c #F28124",
"`. c #E3813A",
"'. c #FFC507",
"]. c #FFC806",
"[. c #FDC308",
/* pixels */
"'.!.E.T.T.T.T.T.T.G.T.D.T.N.9 o . 7 F.E.D.D.D.D.D.D.D.T.T.T.",
"'.!.E.T.G.D 9 9 9 9 9 9 9 q l k.k.k 9 9 t 9 9 9 9 6 H D.T.T.",
"'.!.E.E.B.6 o < 3 3 +   , z z.b.v.z.x @ o < 3 3 + . 8 D.E.T.",
"'.!.E.E.B.6 + 5 n.n.5 1 k.b.v.v.v.v.c.z < 5 V n.4 X 8 D.T.T.",
"'.!.E.T.G.8 , 5 V n.V C l.x.c.c.v.c.x.j.V V B B 4 e D T.T.T.",
"'.!.E.T.T.B.C.0 1 5 C C C j.z.v.v.l.m.C C C 5 2 t M.G.T.T.T.",
"].!.Q.E.G.F i ^ } } } } } } (././.(.} } (.} *.} Y u G T.E.T.",
"'.^.E.Z.) I ~ o.#.#.#.#.L.#.#.@.#.#.#.#.@.@.#.L...Y P ' V.E.",
"'.~.Z.P T *.L.#.#.#.@.#.@.#.P.@.@.@.@.#.@.L.@.@.L.P.{ f ' C.",
"].S.a Q 4.8.5.o.o.o.3.3.3.3.3.O.@.@.@.4.3.3.3.3.3.3.o.=.f # ",
"].S.& S a.h.u.0.- - > > h M - Q -.#.8.~ - M h - > - > - * $ ",
"].S.& R 7.).:.g v $ $ $ c c m M g R W M m b c c c $ n m $ $ ",
"].S.& U @.K.X.E v $ # # # # m M U ~ Y E m $ # # # # * m % # ",
"].S.; R 7.).:.g v $ # # # c v R o.K._.( m c # # # $ n m b # ",
"].S.w S a.h.u.0.; $ $ $ $ $ M R %.O.X.( - * $ $ # # = - * # ",
"].S.w Q 4._.+.4.{ - m m m h &.$.d * ; ~ %.W m m m M ~ %.f # ",
"].S.& Q @.#.@.L.4.=.*.%.%.{ Q I { $.{ U T / %.%.%.%.+.o.T # ",
"].S.& U @.L.@.@.@.P.6.9.8.7.! e.d.9.1.p.q.| 1.1.1.1.`.,.h O ",
"].J.` I *.o.@.@.@.@.;.d.9.5.1.g.s.s.s.s.g.s.s.s.s.s.u.t.j r ",
"'.!.R.) & / @.@.@.@.@.@.#.@.@.@.@.@.+.@.@.@.@.@.#.+.L & G D.",
"'.^.E.) & ~ @.@.@.@.@.@.@.@.@.@.@.@.@.@.@.@.@.@.#.+.U & H E.",
"'.!.E.B.J I W y.g.s.s.s.s.s.s.<.+.7.d.a.f.7.@.#.$.T _ C.F.T.",
"'.!.E.E.G.u *  .9.1.<.<.<.<.<.;._.6.2.<.2.5.#.#./ * ) T.E.T.",
"'.!.E.T.G.F i ~ ..+.#.@.@.@.@.@.@.@.@.@.#.#.+.%.Y i G D.E.T.",
"].!.E.T.T.T.A.s f X.L.P.@.@.@.@.@.P.@.@.@.8.&.; y F.E.D.T.T.",
"'.!.T.T.T.E.A.s f X.P.@.@.@.@.@.@.+.@.P.4.>.q.= y F.E.T.T.D.",
"].!.E.T.T.T.A.a d -.L.P.L.+.L : : !  .i.u.r.w.n y F.E.T.T.T.",
"'.!.T.D.T.T.A.w : -.L.+./ I P F _ j M w.e.r.w.b u F.E.D.T.D.",
"'.^.~.W.W.W.H.' [ Y.U.I.[ _ J.~.~.A.` ] | ,. .` G Q.W.W.W.W.",
"'.'.'.'.'.'.[.[.[.[.'.[.'.'.[.'.[.[.[.[.[.[.[.[.[.[.'.[.[.[."
};
