/* XPM */
static char *_1b16cd0208e46fba9467261bb6bc2ferKDpjk6nKIbSp6RJ[] = {
/* columns rows colors chars-per-pixel */
"60 60 230 2 ",
"   c #39372D",
".  c #2C3834",
"X  c #353D31",
"o  c #343730",
"O  c #342935",
"+  c #462D3C",
"@  c #4A2E3E",
"#  c #4F303D",
"$  c #53323E",
"%  c #5B383C",
"&  c #423C2A",
"*  c #643D36",
"=  c #6C3E35",
"-  c #643A3E",
";  c #6B3D3D",
":  c #60373F",
">  c #713F3E",
",  c #2D493A",
"<  c #394D34",
"1  c #364534",
"2  c #2F553C",
"3  c #325C3D",
"4  c #365639",
"5  c #3F422D",
"6  c #35653E",
"7  c #3D743F",
"8  c #6C591F",
"9  c #715D1D",
"0  c #7B631A",
"q  c #77661D",
"w  c #4A4629",
"e  c #514526",
"r  c #534A26",
"t  c #514C29",
"y  c #5C4D25",
"u  c #585728",
"i  c #5E4133",
"p  c #495631",
"a  c #694B2E",
"s  c #764C2E",
"d  c #655623",
"f  c #73532D",
"g  c #795728",
"h  c #654234",
"j  c #694136",
"k  c #724332",
"l  c #7B4A33",
"z  c #74413C",
"x  c #7C443A",
"c  c #774936",
"v  c #795431",
"b  c #5A692C",
"n  c #4A6934",
"m  c #546A34",
"M  c #5B7D3D",
"N  c #577835",
"B  c #4F6F34",
"V  c #696424",
"C  c #607D2F",
"Z  c #4E2F41",
"A  c #4E3040",
"S  c #543241",
"D  c #5B3542",
"F  c #643941",
"G  c #683B40",
"H  c #346B41",
"J  c #367443",
"K  c #397C44",
"L  c #377844",
"P  c #774645",
"I  c #876A1B",
"U  c #936D1F",
"Y  c #96731B",
"T  c #9D7919",
"R  c #977716",
"E  c #8B7317",
"W  c #A27B19",
"Q  c #A37E17",
"!  c #8C4D2E",
"~  c #904E2F",
"^  c #8B5C26",
"/  c #835B2A",
"(  c #895629",
")  c #95532C",
"_  c #9B542C",
"`  c #9D592B",
"'  c #945A27",
"]  c #834932",
"[  c #8C4C36",
"{  c #854938",
"}  c #924F35",
"|  c #8D523C",
" . c #865739",
".. c #955134",
"X. c #9C5432",
"o. c #97553A",
"O. c #A4592A",
"+. c #AC5B2B",
"@. c #A45929",
"#. c #B15E2C",
"$. c #A45B35",
"%. c #B15F34",
"&. c #866422",
"*. c #8B6423",
"=. c #8B6623",
"-. c #956924",
";. c #9D7D2E",
":. c #9B7428",
">. c #96613D",
",. c #B46126",
"<. c #BD6426",
"1. c #B5612A",
"2. c #BB632A",
"3. c #A57C21",
"4. c #AC7E24",
"5. c #BA6837",
"6. c #AD692F",
"7. c #DA731F",
"8. c #E3761E",
"9. c #E6781D",
"0. c #EC7B1D",
"q. c #E8771E",
"w. c #F47E1B",
"e. c #FA7E1A",
"r. c #C46625",
"t. c #C66926",
"y. c #CC6B24",
"u. c #C36629",
"i. c #C56828",
"p. c #CB6D29",
"a. c #D46E22",
"s. c #D26F29",
"d. c #CF7D23",
"f. c #D57124",
"g. c #DB7221",
"h. c #D07D23",
"j. c #D2702A",
"k. c #DB752A",
"l. c #C46D3A",
"z. c #C76C37",
"x. c #CC7337",
"c. c #DD7B34",
"v. c #D67B3E",
"b. c #DA7D3D",
"n. c #D57534",
"m. c #E27621",
"M. c #E67924",
"N. c #EC7D25",
"B. c #E47C2D",
"V. c #E77D2A",
"C. c #F07E20",
"Z. c #E27D32",
"A. c #854C4A",
"S. c #8C5546",
"D. c #965846",
"F. c #9B5752",
"G. c #8E4F52",
"H. c #A95E48",
"J. c #A35C53",
"K. c #9C6246",
"L. c #A96646",
"P. c #B86B45",
"I. c #B87146",
"U. c #A66052",
"Y. c #CE7A46",
"T. c #C37549",
"R. c #CD7B49",
"E. c #C87542",
"W. c #D27C43",
"Q. c #D67E45",
"!. c #578938",
"~. c #59963B",
"^. c #4B893E",
"/. c #638835",
"(. c #659835",
"). c #779334",
"_. c #6CA435",
"`. c #6BA636",
"'. c #71AB34",
"]. c #75B134",
"[. c #3C8144",
"{. c #458641",
"}. c #AB880E",
"|. c #B28D0D",
" X c #B88F0E",
".X c #BC940B",
"XX c #B6900C",
"oX c #AC8513",
"OX c #AF8811",
"+X c #A88216",
"@X c #B48916",
"#X c #BF9214",
"$X c #839E32",
"%X c #A8862B",
"&X c #B78E28",
"*X c #89A32F",
"=X c #C79D07",
"-X c #C99F07",
";X c #C59B09",
":X c #C79C0B",
">X c #CA9017",
",X c #F5801C",
"<X c #FA811A",
"1X c #FA8B16",
"2X c #E99416",
"3X c #CDA206",
"4X c #CCA00A",
"5X c #D1A505",
"6X c #D6A906",
"7X c #D9AA06",
"8X c #D8A80B",
"9X c #D2A113",
"0X c #D8A711",
"qX c #E4AE0F",
"wX c #E6B307",
"eX c #E9B606",
"rX c #EBB50A",
"tX c #F4BE07",
"yX c #F1BC0A",
"uX c #FBB80B",
"iX c #E5AE12",
"pX c #FBA110",
"aX c #EDB214",
"sX c #F0B314",
"dX c #D78622",
"fX c #CB8D2E",
"gX c #EA802E",
"hX c #FEC507",
"jX c #FFCA05",
"kX c #F7C007",
/* pixels */
"hXhXtXwX7X3X3X4X3X3X3X3X3X3X3X3X3X3X3X3X3X3X3X3X3X3X.X+X8 w o O .   y E |.=X3X3X3X3X3X3X3X3X3X3X3X3X3X3X3X-X3X3X3X3X3X3X",
"hXkXtXwX7X5X3X3X3X=X.XXXXXXX|.|.|.}.|.|.|.|.|.|.XX|.}.E V r 5 o 1 5 y 0 R }.|.XXXXXX|.|.|.|.|.|.|.|.}.XX.X=X=X3X3X3X3X3X",
"jXkXtXwX7X5X3X-X=X.X}.E 0 0 0 0 0 0 0 0 0 0 0 0 0 0 q 9 V b n B b b b V q 0 0 0 0 0 0 0 0 0 0 0 q 0 0 I R }.=X=X3X3X3X3X",
"hXhXtXwX6X5X3X3X;X|.E 0 y e w r w t r r e e e e e r r b b /./.(.(./.C b u u r e e e r w t t w t w w e 8 E Q .X3X3X5X3X3X",
"hXhXtXwX7X5X3X3X;X}.E y   . 1 1 < < 2 1 1 o     5 w b b !.(._.'.'._./.C b p w 5   o X 1 1 < 4 1 1 X   w 9 R XX3X5X3X3X3X",
"hXhXtXwX7X5X5X3X;X}.0 e   . , 2 3 6 2 2 , . o   < n B /._._.].].'.'._.(.!.B 4 5 . . , 2 3 3 3 2 , . . & 8 E XX3X5X5X3X-X",
"hXhXtXwX7X5X5X3X;X}.0 r   . 2 6 7 L J H 6 2 1 < n !.(._.'.'.'.].'.'.'.'._./.B 4 1 1 3 6 7 J J H 2 , o   8 E XX3X5X-X-X5X",
"hXkXyXwX8X5X5X3X;X|.0 y   1 3 7 L [.[.L 6 6 4 6 B /._.'.'.'.'.'.'.'.'.].'.(.!.n 4 4 6 7 L [.[.L 6 2 X w 8 R .X3X5X5X5X-X",
"hXhXyXwX7X5X3X3X:X}.I 8 5 < 3 6 L K K L J J J 7 !.~.`.'.'.'.'.'.'.'.'.`.`.`.!.^.J H J L K L L J 6 4 5 r 9 R .X-X5X5X-X-X",
"hXhXkXwX7X5X3X3X-X XR 0 d u p 6 H H L L L K [.[.{.~.~.(.`.`.'.'.'.'.`.`.~.~.^.^.K K K L L J H 6 4 p u 9 E Q ;X-X-X5X-X5X",
"hXhXyXwX7X3X3X3X3X;XXX}.R q u w , 3 H J K K K K [.{.^.~.~.`.`.'.].'.`.~.~.^.[.[.K K K L J 6 2 < p 8 E }.|.;X=X3X3X-X3X-X",
"hXhXtXwX7X5X3X-X3X=X.X|.Q I g d u p m M M M M N !.!.C /.).$X*X*X*X).).)./.M M M M M M M m m u t d 9 E }. X=X-X-X5X5X-X5X",
"hXhXtXwX7X5X5X5X3X.XoXY *./ ^ ' ` -.6.;.;.;.;.;.;.;.:.%X%X&X&X#X&X&X&X%X%X;.;.;.;.;.;.;.:.:.` ' ' ^ &.I W |.;X5X5X3X3X3X",
"hXhXtXwX7X5X-X;X.X}.U &.( ( @.r.y.h.d.d.dXd.d.d.d.d.d.dXdXdXdXdXdXdXdXdXd.d.d.d.h.h.dXh.d.h.7.r.,.` ( g I W  X;X-X-X3X5X",
"hXkXkXeX7X3X.XOXR U *.( ) +.t.7.0.,X0.0.0.,X,X0.0.,X0.,X0.,X,X,Xw.0.0.0.N.0.C.w.0.w.N.0.w.w.w.8.a.<._ ' ( U U Q  X;X-X5X",
"jXhXtXwX6X;X+XY &.^ ' O.,.y.8.0.<X<X<X<Xe.e.w.e.e.,Xe.e.,Xe.,X,Xe.e.e.e.e.e.e.e.e.e.e.e.e.e.e.w.8.7.r.+._ ' ^ I Q  X;X-X",
"jXkXkX8X:XOXY ^ ( ~ +.r.g.0.w.w.<X<Xe.e.e.e.e.e.e.e.e.e.e.e.e.w.w.e.w.w.w.e.w.e.e.e.e.e.e.e.e.e.w.w.0.a.<.O.( / -.W OX|.",
"jXkXqX>X+X-.^ ( ) @.r.8.w.e.e.e.w.w.w.w.w.w.w.w.w.w.w.w.w.w.w.w.w.w.w.w.w.w.w.w.w.w.w.w.w.w.w.w.w.e.e.0.a.#._ ) ' *.I U ",
"jXkX9X@X&.c ( ` <.a.M.N.w.C.C.q.0.q.0.0.C.q.C.q.M.q.0.q.0.q.0.0.w.w.w.e.w.w.w.w.m.C.m.q.q.w.q.q.0.0.0.q.8.a.t.,.) s h i ",
"jXyX9X3.f j l >.p.B.V.Z.B.k.s.p.i.i.i.i.t.t.t.t.t.t.t.i.i.i.s.g.m.w.e.e.w.C.g.a.y.t.t.t.i.t.p.i.t.i.t.p.t.t.<.+.] * @ + ",
"jXyX9X3.c % P D.I.Y.Q.Q.T.P.$.o.[ [ [ [ [ [ [ [ [ { [ { { } X.1.g.C.e.e.w.m.p.#.X.[ { [ [ [ } [ [ { [ [ [ [ { x * $ # + ",
"jXyX9X3.f h P D.I.R.R.R.T.L.D.P G F : F F F : F G F F F - ; x ..#.y.a.g.a.u.+.} G F F F F F : : G : G ; G G G - $ $ + + ",
"jXyX9X;.f - { o.l.Z.gXQ.x.5.| P F S S Z S S $ $ $ S S S D F G x } X.$.X.$.} { > G D S S S Z # S $ S Z S S D D D $ @ + + ",
"jXyX9XW f h { $.j.C.gXN.k.2.o.G D Z Z Z + + + Z + + Z Z Z D G G > ] [ [ { { P G F S S Z Z + @ @ + @ + @ S S D S S $ + + ",
"jXyX9X3.f h { O.g.w.<X,Xm.i...z F Z + @ + + + + + + + $ S D G z { ..X.X.X.[ { G F S Z @ + + @ + + + + Z Z D D S $ @ + + ",
"jXyX9X3.f j ] +.g.,X<X,Xm.i.X.> % Z + + + + + + + + @ @ Z D > { ` #.2.<.1.+.} x G S @ @ + + + + + + + @ $ S D D $ $ + + ",
"jXyX9X3.f j ] $.j.N.gXV.k.5.} > D Z @ @ + + @ + + + + @ Z D > ..r.7.9.q.M.y.+.[ G S Z + + + + + + + + + $ S S S $ @ @ + ",
"jXyX9X3.f j x o.l.b.gXZ.x.5.S.> D Z @ @ @ + @ + + + @ @ S : x $.y.q.<Xe.e.8.1.} > S Z @ @ + + @ + + + @ $ S D D $ @ @ + ",
"hXyX9X3.f i P D.P.R.Q.R.T.P.S.P F $ # @ @ @ @ + @ @ @ # S ; x $.y.8.q.w.q.g.#.} > : $ $ @ + + @ @ @ @ # $ % F : $ @ @ + ",
"jXyX9X3.f F P D.P.Y.Q.R.E.P.$.| { ; % $ Z @ + @ @ # $ : > { } O.#.#.r.r.r.#.+.X.} > ; % # @ Z @ @ @ @ $ - z ] x ; % @ + ",
"jXyX9X3.f j c $.x.B.V.V.B.k.s.i.#...> : % S D $ $ S : > O.#.#.+.) ] ] = l ! @.+.#.+.[ = : S S : S S D ; ] $.#.O.] * S O ",
"jXyX9X3.f h { O.g.C.C.C.C.C.w.q.a.#.} ] x > > x > > { } +.#.#.@.) = = = = ] _ #.r.#.X.[ ] > > > > > > { +.u.a.r.) k $ + ",
"jXyX9X3.f * ] +.g.w.e.,Xe.w.,X0.8.a.u.#.#.+.+.#.#.%.+.O.` ) _ _ ` O.O.+.@.O._ ) ) _ O.+.#.1.+.#.+.+.#.2.a.g.8.y._ = $ + ",
"jXyX9X3.f h ] +.g.w.e.e.e.,X<X,X0.0.8.f.a.s.s.j.j.g.s.#.` [ [ ..1.2.y.s.p.2.O...{ ~ $.2.p.j.j.j.s.s.s.k.M.M.M.t._ = # O ",
"jXyX9X:.s * ] +.7.e.e.e.e.w.w.w.w.w.w.0.N.B.Z.Z.V.N.m.p.%.| S.H.5.x.c.c.c.z.%.D.S.S.%.l.n.b.c.c.Z.b.c.c.B.V.Z.z.[ ; # + ",
"jXtX9X%Xf h ] +.a.w.w.e.w.w.w.w.,Xw.,X,XN.Z.Z.Z.V.N.N.k.5.>.L.L.T.Y.W.gXQ.Y.I.L.K.L.I.T.W.W.gXW.b.Q.fXQ.Q.W.E.H.| ; # + ",
"jXtX0X@X&.v ! ` r.7.8.w.w.w.e.w.w.e.,X,XV.Z.v.v.Z.V.N.V.n.E.T.T.R.Y.Y.W.Y.R.T.T.I.T.T.R.Y.W.W.Q.W.W.Y.R.T.I.L.K. .j h i ",
"jXtXqX>XW =.*.' @.#.y.7.0.w.w.w.w.w.w.0.V.Z.c.c.B.N.N.N.B.Z.b.Q.Q.fXv.v.v.v.b.b.b.b.v.v.v.v.v.W.v.b.v.x.I.U.S.S. .&.&.&.",
"hXhXeX7X:XOX-.g s ] +.y.9.e.e.,Xw.w.w.w.,XN.N.N.C.w.w.w.C.C.N.N.V.V.V.N.V.N.N.N.gXC.N.N.V.N.V.N.N.gXN.j.6.| k a &.;.OXXX",
"hXhXkXeX8X.XR g * = ) r.9.<X<Xw.w.w.w.w.w.w.w.w.w.w.w.w.w.w.w.w.e.w.e.w.w.w.w.w.e.w.w.w.w.w.w.w.<X,Xw.g.+.{ * h =.+X=X5X",
"jXhXkXeX6X.XY g i = _ r.q.w.e.w.,Xw.w.w.w.w.w.w.w.w.w.w.w.w.w.w.w.,Xw.w.w.w.w.w.w.w.w.e.w.w.w.,Xe.e.e.7.+.] * a &.oX:X5X",
"hXhXkXwX6X.X+X&.f s ' #.a.8.M.M.V.V.N.V.M.N.N.N.N.V.N.N.N.N.N.N.0.,X0.,XN.N.V.V.N.N.N.w.w.w.w.w.0.q.7.r.@.( s g R |.=X3X",
"hXhXkXwX6X4XXX+XR I ' ' X.+.5.x.v.v.v.v.v.v.v.v.v.v.v.v.v.v.c.B.N.0.gXV.c.v.v.v.b.c.N.N.w.e.e.0.g.r.+.' ' ^ U W OX.X=X3X",
"hXhXkXwX6X3X;X.X}.W *.s c S.$.T.R.Q.W.W.Y.Y.Y.Y.Y.R.Y.Y.Y.Y.v.c.V.,XM.c.v.Y.R.Y.W.v.B.N.w.,Xe.0.a.+.] s g U Q .X.X4X3X3X",
"hXkXtXwX7X5X3X3X;XOX&.a * P o.E.v.b.Q.W.W.v.v.W.W.v.v.W.v.v.v.B.N.,XV.B.b.v.W.v.v.c.B.,X,X<X<X0.r._ = * g Y |.3X3X3X3X3X",
"hXhXkXwX7X5X5X3X:XOXI f h z X.5.n.Z.Z.c.c.Z.c.Z.Z.c.c.c.Z.Z.B.V.gX0.,XM.B.c.c.c.c.gXM.0.w.w.w.7.<.) = h g R .X5X5X5X3X3X",
"jXkXyXwX7X5X3X3X=X|.Y g f l $.<.a.m.m.0.0.C.w.N.C.0.0.C.0.0.w.0.0.w.0.,X0.0.0.0.0.,Xw.w.0.0.8.y.,.) s f =.+X.X3X5X3X3X3X",
"hXhXtXwX7X5X3X3X-X.XoXY *.*.-.O.,.t.8.w.w.e.w.e.w.e.w.w.w.w.e.w.,Xw.w.,Xe.,X,Xw.e.,Xe.w.8.7.r.@.` ^ *.U T |.;X3X3X3X3X3X",
"hXhXtXwX6X5X3X3X3X3X.X.XoXY g s ! @.y.0.e.<Xw.w.w.w.w.w.w.w.w.w.w.w.w.w.w.w.w.e.e.w.C.C.a.#.} l s *.W |.;X=X:X3X3X:X3X3X",
"jXkXtXwX7X3X3X4X3X3X5X3X.XT f a k ! r.q.w.,Xw.w.w.w.w.w.w.w.w.e.w.,Xw.e.w.w.w.w.e.C.M.k.u.$.= * a I OX=X-X5X3X3X3X3X3X3X",
"hXkXtXeX6X3X3X=X3X3X3X3X.XT g h k ~ r.q.w.<Xw.e.w.w.w.w.w.w.w.w.,X,Xw.w.w.e.e.w.C.M.n.z.H.{ G : a &.OX=X5X5X3X3X3X3X3X3X",
"hXhXtXwX6X3X3X3X3X3X3X3X.XT g h h ~ r.9.w.<X,Xe.e.e.w.0.8.7.a.a.a.a.g.g.M.M.M.M.m.n.z.H.D.A.F D s I OX=X3X5X3X3X3X3X=X3X",
"hXkXtXeX7X3X3X3X3X3X3X3X.XT g h k ~ r.0.w.,X,Xw.e.e.0.7.2.O.) ) ! ..$.5.l.z.z.z.T.T.H.J.F.P D % a I OX=X5X5X-X3X3X=X3X3X",
"jXhXtXwX7X3X3X3X3X3X3X3X.XR g h = ! r.8.w.<Xw.w.w.q.7.r.O.! s k k s { o.o.H.H.H.U.U.H.J.G.P D % k I OX;X3X5X5X-X3X3X3X3X",
"hXhXyXwX6X3X=X=X3X3X3X4XXXT f i = ! r.8.w.e.e.8.a.r.#.` ( ( g g g g v P P A.G.F.F.J.J.F.G.P D D h I oX=X-X5X-X-X3X3X3X3X",
"hXkXkXeX7X3X3X3X3X3X5X4X.X+Xg a k ~ r.9.e.1Xw.8.t.+.' ^ -.U Y R T Y =.v c P A.G.J.J.U.J.F.P j % s I |.-X5X5X5X5X3X3X3X3X",
"hXhXkXeXwX6X6X5X6X6X7X6X:X@X-./ ^ @.d.2X1X1X1XdX<.6.^ -.+X X:X4X:X;X+X:./  .S.o.L.I.I.I.L.o. . .*.T #X5X7X7X7X6X6X5X6X6X",
"hXhXhXyXeXeXwXwXwXwXwXwX7X9X@X@X@XdX2X2XpXpXpX2X>X@X4.oX>X7XwXyXeXwX9X#X+X3.%XfXfXfXfXfXfX&X%XW @X>X0XwXwXeXwXwXwXwXwXwX",
"hXhXhXkXkXkXkXkXtXkXtXtXtXyXrXqXqXrXyXuXuXuXuXuXaXqXqXqXeXtXkXkXkXtXyXwXqXqXiXaXaXsXyXsXaXiXiXiXqXwXeXkXkXkXkXkXtXkXtXtX",
"hXhXhXhXhXhXhXhXhXhXhXhXhXhXhXhXhXhXhXhXhXhXhXhXhXhXjXhXhXhXjXhXhXhXhXhXhXhXhXhXhXjXhXhXjXhXhXhXhXhXhXhXhXhXhXhXhXhXhXhX"
};
