/* XPM */
static char *_c0d8750c5af41ec80880ab7c80bb8c5bXNkCUBCk2hHFNms[] = {
/* columns rows colors chars-per-pixel */
"32 32 181 2 ",
"   c #7F4935",
".  c #753F2B",
"X  c #713B26",
"o  c #713B27",
"O  c #7D4733",
"+  c #7E4935",
"@  c #794330",
"#  c #7A4532",
"$  c #7D4834",
"%  c #723C27",
"&  c #703A25",
"*  c #703924",
"=  c #C6876A",
"-  c #C6866A",
";  c #C68669",
":  c #C28367",
">  c #905842",
",  c #C7886B",
"<  c #BE7C5E",
"1  c #B67050",
"2  c #C28164",
"3  c #C8876A",
"4  c #C48467",
"5  c #905741",
"6  c #C9886B",
"7  c #C27E5F",
"8  c #BA7353",
"9  c #C58365",
"0  c #BA7354",
"q  c #BA7454",
"w  c #B67051",
"e  c #824830",
"r  c #BC7454",
"t  c #824730",
"y  c #BB7454",
"u  c #BB7453",
"i  c #BC7554",
"p  c #A96648",
"a  c #AA6649",
"s  c #AC694C",
"d  c #A86649",
"f  c #6F3924",
"g  c #7D432C",
"h  c #66321E",
"j  c #68331F",
"k  c #67331F",
"l  c #66311E",
"z  c #6A3522",
"x  c #76412E",
"c  c #75402E",
"v  c #693420",
"b  c #67321E",
"n  c #834B35",
"m  c #804832",
"M  c #743E29",
"N  c #844C35",
"B  c #834B34",
"V  c #864E37",
"C  c #8E5640",
"Z  c #8D5540",
"A  c #844C36",
"S  c #824B34",
"D  c #CD8D6F",
"F  c #CD8D70",
"G  c #C08266",
"H  c #6A3521",
"J  c #945B43",
"K  c #CF8F72",
"L  c #CD8C6F",
"P  c #CC8C6F",
"I  c #CB8B6E",
"U  c #7F4731",
"Y  c #B9795C",
"T  c #91563E",
"R  c #C78566",
"E  c #C48164",
"W  c #7D452F",
"Q  c #BA7252",
"!  c #AF6B4C",
"~  c #8C4F36",
"^  c #B87151",
"/  c #7B422B",
"(  c #B06B4D",
")  c #B97252",
"_  c #BD7555",
"`  c #B26D4E",
"'  c #6A3420",
"]  c #8D5036",
"[  c #BE7656",
"{  c #95573C",
"}  c #96573C",
"|  c #915339",
" . c #703B27",
".. c #834A33",
"X. c #9D5E44",
"o. c #9C5D43",
"O. c #9C5E43",
"+. c #995A3F",
"@. c #95563C",
"#. c #9A5B41",
"$. c #995A40",
"%. c #95563B",
"&. c #78412C",
"*. c #632F1C",
"=. c #632F1B",
"-. c #65311E",
";. c #74402E",
":. c #733F2D",
">. c #6B3724",
",. c #622E1B",
"<. c #65311D",
"1. c #6D3927",
"2. c #6B3725",
"3. c #723D2A",
"4. c #9B6048",
"5. c #9C6149",
"6. c #A2674F",
"7. c #A2684F",
"8. c #A36850",
"9. c #9F644C",
"0. c #985E46",
"q. c #6D3823",
"w. c #78422C",
"e. c #9C6148",
"r. c #A0654D",
"t. c #A1664E",
"y. c #CE8E71",
"u. c #CE8E70",
"i. c #CE8D70",
"p. c #C8896C",
"a. c #885039",
"s. c #C17D5E",
"d. c #BC795B",
"f. c #844A33",
"g. c #B56F50",
"h. c #82472F",
"j. c #BB7353",
"k. c #834830",
"l. c #BD7655",
"z. c #81472F",
"x. c #814831",
"c. c #814933",
"v. c #6B3622",
"b. c #67321F",
"n. c #663321",
"m. c #663523",
"M. c #673320",
"N. c #A76447",
"B. c #9F5E42",
"V. c #844931",
"C. c #A86548",
"Z. c #A76548",
"A. c #A66346",
"S. c #763E28",
"D. c #B16C4D",
"F. c #8D5037",
"G. c #BE7655",
"H. c #93503B",
"J. c #93503C",
"K. c #8E4C38",
"L. c #7B402C",
"P. c #94513C",
"I. c #92503B",
"U. c #723A26",
"Y. c #8A4836",
"T. c #854533",
"R. c #773D29",
"E. c #894735",
"W. c #703825",
"Q. c #864633",
"!. c #773D2A",
"~. c #8B4937",
"^. c #773C29",
"/. c #884735",
"(. c #6C3622",
"). c #6C3825",
"_. c #6C3927",
"`. c #6C3725",
"'. c #693623",
"]. c #693725",
"[. c white",
/* pixels */
"      . X X X X X X X X o O       + @ #     $ % X X X X X & * X ",
"= = = - ; ; ; ; ; ; ; ; - = = = = :   > , = = - ; ; ; ; = < 1 2 ",
"3 3 3 3 3 3 3 3 3 3 3 3 3 3 3 3 3 4 O 5 6 3 3 3 3 3 3 3 6 7 8 9 ",
"0 0 0 0 0 0 0 0 0 0 0 0 0 0 0 0 q w & e r 0 0 0 0 0 0 0 q 8 8 8 ",
"8 8 8 8 8 8 8 8 8 8 8 8 8 8 8 8 8 1 * t y 8 8 8 8 8 8 8 8 8 8 8 ",
"y y y y y y y y y y y y y y y u u w * e i y y y y y y y y y y y ",
"p p p p p p p p p p p p p p a s s d f g a p p p p p p p p p p p ",
"h h h h h j k h h h h h h l z x x c v b h h h h h h h h h h h j ",
"n n n n m v M N n n n n n B V C C Z A B n n n n n n n n n n S f ",
"D D D F G H J K D D D D D D L P P P D D D D D D D D D D D D I U ",
"9 9 9 9 Y H T R 9 9 9 9 9 9 9 9 9 9 9 9 9 9 9 9 9 9 9 9 9 9 E W ",
"Q Q Q 8 ! H ~ r Q Q Q Q Q Q Q Q Q Q Q Q Q Q Q Q Q Q Q Q Q Q ^ / ",
"8 8 8 8 ( H ~ i 8 8 8 8 8 8 8 8 8 8 8 8 8 8 8 8 8 8 8 8 8 8 ) / ",
"_ _ _ _ ` ' ] [ i i i i _ _ _ _ _ _ _ _ _ i i i i i i i i i y / ",
"{ { { } |  ...X.o.o.O.+.@.{ { { { { { { @.#.o.o.o.o.o.o.O.$.%.&.",
"*.*.*.=.-.c ;.:.:.:.:.>.,.*.*.*.*.*.h <.,.1.:.:.:.:.:.:.:.2.=.3.",
"4.4.4.4.5.6.7.7.7.7.8.9.4.4.4.4.4.0.q.w.e.r.8.7.7.7.7.7.8.9.4.t.",
"y.y.y.y.u.F F F F F F i.y.y.y.y.y.p.% a.K F F F F F F F F i.y.F ",
"s.s.s.s.s.s.s.s.s.s.s.s.s.s.s.s.s.d.& f.7 s.s.s.s.s.s.s.s.s.s.s.",
"Q Q Q Q Q Q Q Q Q Q Q Q Q Q Q Q Q g.* h.j.Q Q Q Q Q Q Q Q Q Q Q ",
"8 8 8 8 8 8 8 8 8 8 8 8 8 8 8 8 8 1 * t y 8 8 8 8 8 8 8 8 8 8 8 ",
"i i i i i i i i i i i i i i i i i ^ * k.l.i i i i i i i i i i i ",
"z.z.z.z.z.z.z.z.z.z.z.x.c.c.c.c.c.m v.& z.z.z.z.z.z.z.z.z.z.z.z.",
"h h h l h k b.l h h l n.m.m.m.m.m.m.M.b.l h h h h h h h h h h b.",
"N.N.N.N.B.H V.C.N.N.N.N.Z.Z.Z.Z.Z.Z.N.N.N.N.N.N.N.N.N.N.N.N.A.S.",
"r r r i D.H F.G.r r r r r r r r r r r r r r r r r r r r r r 8 / ",
"H.H.H.J.K.' L.P.H.H.H.H.H.H.H.H.H.H.H.H.H.H.H.H.H.H.H.H.H.H.I.U.",
"Y.Y.Y.Y.T.v R.Y.Y.Y.Y.Y.Y.Y.Y.Y.Y.Y.Y.Y.Y.Y.Y.Y.Y.Y.Y.Y.Y.Y.E.W.",
"Y.Y.Y.Y.Q.v !.~.Y.Y.Y.Y.Y.Y.Y.Y.Y.Y.Y.Y.Y.Y.Y.Y.Y.Y.Y.Y.Y.Y.Y.W.",
"E.E.E.E.T.v ^.Y.E.E.E.E.E.E.E.E.E.E.E.E.E.E.E.E.E.E.E.E.E.E./.W.",
"(.(.(.(.(.v H (.(.(.(.(.(.(.(.(.(.(.(.(.(.)._._._._._._._.`.(.' ",
"v v v v v v v v v v v v v v v v v v v v v '.].].].].].].].'.v v "
};
