/* XPM */
static char *_afebabc198e4f51c817f341808bf558FoslK4eb8bQMnLI5[] = {
/* columns rows colors chars-per-pixel */
"60 60 126 2 ",
"   c None",
".  c red",
"X  c #FF0300",
"o  c #FF0400",
"O  c #FF0700",
"+  c #FF0800",
"@  c #FF2600",
"#  c #FF2800",
"$  c #FF2900",
"%  c #FF2B00",
"&  c #FF2E00",
"*  c #FF5100",
"=  c #FF6700",
"-  c #FF7D00",
";  c #FF7E00",
":  c #FF7F00",
">  c #2AFF00",
",  c #2BFF00",
"<  c #2CFF00",
"1  c #2DFF00",
"2  c #2EFF00",
"3  c #2FFF00",
"4  c #2EFF01",
"5  c #2EFD04",
"6  c #2EFD06",
"7  c #2FFB09",
"8  c #2FFA0B",
"9  c #30FF00",
"0  c #31FF00",
"q  c #32FF00",
"w  c #26E73C",
"e  c #41FF00",
"r  c #42FF00",
"t  c #43FF00",
"y  c #45FF00",
"u  c #47FF00",
"i  c #66FF00",
"p  c #25E440",
"a  c #25E540",
"s  c #22E247",
"d  c #23E14A",
"f  c #FF8000",
"g  c #FF8600",
"h  c #FF9400",
"j  c #FF9600",
"k  c #FF9700",
"l  c #FF9800",
"z  c #FF9900",
"x  c #FF9A00",
"c  c #FF9B00",
"v  c #FF9C00",
"b  c #FFA000",
"n  c #FFAB00",
"m  c #FFAF00",
"M  c #FFBA00",
"N  c #83FF00",
"B  c #AAFF00",
"V  c #AFFF00",
"C  c #B0FF00",
"Z  c #B1FF00",
"A  c #B3FF00",
"S  c #FFCE00",
"D  c #FFCF00",
"F  c #FFD100",
"G  c #C0FF00",
"H  c #FFE000",
"J  c #FFEB00",
"K  c #E5FF00",
"L  c #E6FF00",
"P  c #EAFF00",
"I  c #FFF700",
"U  c #F6FF00",
"Y  c #FAFF00",
"T  c #FFFC00",
"R  c #FFFD00",
"E  c #FFFE00",
"W  c #FEFF00",
"Q  c yellow",
"!  c #5F38FF",
"~  c #5E39FF",
"^  c #5D3AFF",
"/  c #5C3BFF",
"(  c #6730FF",
")  c #6631FF",
"_  c #6532FF",
"`  c #6433FF",
"'  c #6334FF",
"]  c #6235FF",
"[  c #6136FF",
"{  c #6037FF",
"}  c #3364FF",
"|  c #3166FF",
" . c #3167FF",
".. c #3266FF",
"X. c #3068FF",
"o. c #2078FF",
"O. c #4C4CFF",
"+. c #5740FF",
"@. c #4156FF",
"#. c #10BAAA",
"$. c #18C985",
"%. c #09AACF",
"&. c #09ABCF",
"*. c #09AAD1",
"=. c #09AAD2",
"-. c #1483FF",
";. c #1583FF",
":. c #1187FF",
">. c #1484FF",
",. c #0197FB",
"<. c #0791FF",
"1. c #0095FF",
"2. c #0395FF",
"3. c #0096FF",
"4. c #0097FF",
"5. c #0197FF",
"6. c #0198FB",
"7. c #0199FB",
"8. c #0199FC",
"9. c #0099FD",
"0. c #0098FE",
"q. c #0098FF",
"w. c #0099FF",
"e. c #009AFF",
"r. c #009CFF",
"t. c #06A4E0",
/* pixels */
"                                                                                                                        ",
"                                                                                                                        ",
"                                                                                                                        ",
"                                                                                                                        ",
"                                                                                                                        ",
"                                                . . . . . . . . . . . . . . . . . . . . . . . . .                       ",
"                                                . . . . . . . . . . . . . . . . . . . . . . . . . .                     ",
". . . . . . . . . . . . . . . . . . . . . . . . . . . . . . . . . . . . . . . . . . . . . . . . . . . . . . . . . . . . ",
". . . . . . . . . . . . . . . . . . . . . . . . . . . . . . . . . . . . . . . . . . . . . . . . . . . . . . . . . . . . ",
". . . . . . . . . . . . . . . . . . . . . . . . . . . . . . . . . . . . . . . . . . . . . . . . . . . . . . . . . . . . ",
". . . . . . . . . . . . . . . . . . . . . . . . . . . . . . . . . . . . . . . . . . . . . . . . . . . . . . . . . . . . ",
". . . . . . . . . . . . . . . . . . . . . . . . O + + + + + + + + + + + + + + + + + + + + + + + + O . . . . . . . . . . ",
". . . . . . . . . . . . . . . . . . . . . . . . = f - - - - - - - f f f - - - - - - - f f - - - - & . . . . . . . . . . ",
"$ $ $ $ $ $ $ $ $ $ $ $ $ $ $ $ $ $ $ $ $ $ $ & g v l v l l l v v v v l v l v l v l l v v l v l l * @ $ $ $ $ $ $ $ $ $ ",
"k k k k k k k k l l l l l k k k l l l l k k l l l l l l l l l l l l l l l l l l l l l l l l l l l l k k k k k k k k l v ",
"l l l l l l k l l l l l l l l l l l l l l l l l l l l l l l l l l l l l l l l l l l l l l l l l l l l l l l l l l l l l ",
"l l l l l l l l l l l l l l l l l l l l l l l l l l l l l l l l k k k l l l k k l l l l k k k l l l l l l l l l l l l l ",
"l l l l l l l l l l l l l l l l l l l l l l l l l l k k l l l l k k l l l l k k l l l l k k l l l l l l l l l l l l l l ",
"l l l l l l k k l l l l l l k l l l l l l l l l k k k k k k k k k k h k k k k k k k k k k k h k k k l l l l k l l l l l ",
"l l l l l l k k l l l l l l k k l l l l l l l l n m m m m m m m m m m m m m m m m m m m m m m m m v l l l l k k l l l l ",
"k k k k k k h k k k k k h k k h l k k k k k k l J Q T T T T T T T T T T T T T T T T T T T T T T Q M k k k k k h k k k k ",
"D D D D D D D D D D D D D D D D D D D D D D D D I Q Q Q Q Q Q Q Q Q Q Q Q Q Q Q Q Q Q Q Q Q Q Q Q H D D D D D D D D D D ",
"Q Q Q Q Q Q Q Q Q Q Q Q Q Q Q Q Q Q Q Q Q Q Q Q Q Q Q Q Q Q Q Q Q Q Q Q Q Q Q Q Q Q Q Q Q Q Q Q Q Q Q Q Q Q Q Q Q Q Q Q ",
"Q Q Q Q Q Q Q Q Q Q Q Q Q Q Q Q Q Q Q Q Q Q Q Q Q Q Q Q Q Q Q Q Q Q Q Q Q Q Q Q Q Q Q Q Q Q Q Q Q Q Q Q Q Q Q Q Q Q Q Q ",
"Q Q Q Q Q Q Q Q Q Q Q Q Q Q Q Q Q Q Q Q Q Q Q Q Q Q Q Q Q Q Q Q Q Q Q Q Q Q Q Q Q Q Q Q Q Q Q Q Q Q Q Q Q Q Q Q Q Q Q Q ",
"Q Q Q Q Q Q Q Q Q Q Q Q Q Q Q Q Q Q Q Q Q Q Q Q Q Q Q Q Q Q Q Q Q Q Q Q Q Q Q Q Q Q Q Q Q Q Q Q Q Q Q Q Q Q Q Q Q Q Q Q ",
"Q Q Q Q Q Q Q Q Q Q Q Q Q Q Q Q Q Q Q Q Q Q Q Q P L L L L L L L L L L L L L L L L L L L L L P L L U Q Q Q Q Q Q Q Q Q Q ",
"Q Q Q Q Q Q Q Q Q Q Q Q Q Q Q Q Q Q Q Q Q Q Q Y i r y y y y y y y r r y y y y y y y y r r y y y r G Q Q Q Q Q Q Q Q Q Q ",
"Z Z Z Z Z Z Z Z V V Z Z Z Z Z Z Z Z V V Z Z Z B u 0 0 0 0 0 0 0 0 2 2 0 0 0 0 0 0 0 0 2 2 0 0 0 0 N A Z Z Z Z Z Z Z Z Z ",
"0 0 0 0 0 2 0 2 > 2 0 2 0 0 0 0 2 0 2 2 0 0 0 0 0 q 0 0 0 0 q 0 0 0 2 0 q q 0 0 0 0 0 0 0 0 0 0 0 0 0 0 0 2 0 0 0 0 > > ",
"0 0 q q q q 0 0 0 0 q q 0 0 q q 0 0 2 2 q q 0 0 0 q 0 0 0 0 q q 0 0 0 0 q q 0 0 0 0 0 q 0 0 0 0 0 0 q q q q 0 0 0 q 2 2 ",
"0 0 q q q q 0 0 0 0 q q 0 0 q q q 0 0 0 q q 0 0 0 0 0 2 0 2 0 0 0 2 0 2 0 0 0 2 0 2 0 0 2 0 0 2 0 0 q q q q 0 0 0 0 0 0 ",
"q 0 0 0 0 0 0 0 q q 0 0 0 0 q q 0 0 q 0 0 0 0 0 2 2 2 2 2 2 2 > 2 2 2 > 2 2 2 > 2 2 2 2 2 > 2 2 2 0 0 0 0 0 0 0 0 0 q q ",
"0 2 2 0 2 2 2 2 2 0 2 2 2 2 2 0 2 2 0 2 2 0 2 2 7 8 8 8 8 8 8 8 8 8 8 8 8 8 8 8 8 8 8 8 8 8 8 8 7 6 2 2 2 0 2 2 2 2 2 0 ",
"0 0 0 2 0 0 2 0 0 2 0 0 0 0 0 2 0 0 0 0 0 2 0 6 #.*.*.&.&.&.&.&.&.&.&.&.&.&.&.&.&.&.&.&.&.&.&.&.*.s 0 0 0 2 0 0 0 0 0 2 ",
"p p p p p p p p p p p p p p p p p p p a p p p d t.4.4.q.4.4.4.4.4.1.4.4.4.4.4.4.4.4.4.4.4.4.4.4.4.$.w w p p p p p p p p ",
"7.7.7.7.7.7.7.7.,.7.7.7.7.7.7.7.7.7.7.7.7.7.7.8.4.q.q.q.q.q.q.q.4.4.4.q.q.q.q.q.q.q.q.q.4.4.4.q.q.q.7.7.7.7.7.7.7.7.7.,.",
"q.q.q.q.q.q.q.q.4.q.q.q.q.q.q.q.q.q.4.4.q.q.q.q.q.q.q.q.q.q.q.q.4.4.q.q.q.q.q.q.q.q.q.q.4.4.q.q.q.q.q.q.q.q.q.q.q.q.4.4.",
"q.q.q.q.q.q.q.q.4.q.q.q.q.q.q.q.q.q.q.q.q.q.q.q.q.q.q.q.q.q.q.q.4.q.q.q.q.q.q.q.q.q.q.q.q.q.q.q.q.q.q.q.q.q.q.q.q.q.q.4.",
"q.q.q.q.q.q.q.q.q.q.q.q.q.q.q.q.q.q.q.q.q.q.q.q.q.q.q.q.q.q.q.q.q.q.q.q.q.q.q.q.q.q.q.q.q.q.q.q.q.q.q.q.q.q.q.q.q.q.q.q.",
"q.q.q.q.q.q.q.q.q.q.q.q.q.q.q.q.q.q.q.q.q.q.q.q.q.q.q.q.r.q.q.q.q.q.q.r.q.q.q.r.q.q.q.q.q.q.q.q.q.q.q.q.q.q.q.q.q.q.q.q.",
"q.q.q.q.q.q.q.q.q.q.q.q.q.q.q.q.q.q.q.q.q.q.q.q.:.>.>.:.>.>.>.:.>.>.>.>.>.>.>.:.>.>.>.:.>.>.>.>.>.<.q.q.q.q.q.q.q.q.q.q.",
"q.r.q.r.q.r.r.r.q.q.r.q.q.q.r.q.q.q.q.r.r.q.r.2.O.^ ^ ^ ^ ^ / / ^ ~ ^ ^ ^ ^ ^ / ^ ^ ^ ^ ^ ^ ^ ^ ^ o.r.r.r.q.q.q.q.r.q.r.",
"..X...X...X.X.X.....X...X.X.X.X.X.X.X.X...X...} +.[ ~ ~ [ ~ [ ~ [ [ [ ^ [ ^ [ ^ ~ ~ ~ [ [ ^ [ ^ ~ @.X.X.X.X.X.X...X.X.} ",
"[ [ [ [ [ [ [ [ [ [ [ [ [ [ [ [ [ [ [ [ [ [ [ [ [ ^ [ ^ ~ [ ~ ~ ~ [ [ ^ ^ [ ^ [ ^ [ ^ [ [ [ ^ [ ^ [ [ [ [ [ [ [ [ [ [ ` ",
"[ ~ ~ [ [ ^ ^ [ [ [ [ ^ [ [ [ ^ ^ [ [ [ ^ [ ^ [ ^ [ ^ [ ~ [ ~ [ [ ^ ^ [ [ [ [ ^ [ ^ [ ^ [ ^ [ ^ [ [ ~ [ [ ^ [ ^ [ [ [ [ ",
"[ ~ ~ [ ^ [ ^ [ [ ^ ^ [ [ ^ ^ [ [ ^ ^ [ [ ^ [ ^ ` ` ` ` ) ) ( [ [ ` ` ` ` ` ` ` ` ` [ [ ` ` ` ` ` [ [ ^ ^ [ ~ [ ^ [ ^ [ ",
"~ [ ~ [ [ [ [ ^ [ [ [ [ ^ [ [ [ [ ^ [ ^ [ [ [ ` ` ( ` ( ) ) ) [ ~ ` ` ) ( ( ( ( ` ( [ [ ( ` ( ` ) [ ~ [ [ ~ [ [ [ ~ [ ~ ",
") ) ) ( ( ( [ [ ` ) ) ) ) ) ) ( ) ~ ` ` ) ) ) ) ) ` ) ` ) ` ) [ [ [ ` ` ) ` ) ` ) ` [ [ ` ` ) ` ) ( ( ) ) ( ( ( ` ~ ` ` ",
"` ) ` ) ) ` ~ [ ` ) ` ) ) ` ) ` ` [ [ ` ) ` ` )                                                   ` ) ` ` ` ` ) ` ^ [ ` ",
") ` ) ` ` ` [ [ ) ` ` ) ` ) ` ) ` ~ [ ) ` ) ) `                                                     ` ) ` ) ) ` ` [ ` ) ",
"                                                                                                                        ",
"                                                                                                                        ",
"                                                                                                                        ",
"                                                                                                                        ",
"                                                                                                                        ",
"                                                                                                                        ",
"                                                                                                                        ",
"                                                                                                                        ",
"                                                                                                                        "
};
