/* XPM */
static char *_49a065aa00a4520c02d855f9d81a4e94CgYIh5pFd38wbZv[] = {
/* columns rows colors chars-per-pixel */
"32 32 217 2 ",
"   c None",
".  c #161C1A",
"X  c #1B1C1B",
"o  c #181619",
"O  c #130504",
"+  c #2A1C1D",
"@  c #271B19",
"#  c #360F11",
"$  c #3D2C1C",
"%  c #1D192B",
"&  c #2C1A24",
"*  c #381E24",
"=  c #1D262A",
"-  c #1D2C39",
";  c #18353D",
":  c #262324",
">  c #372624",
",  c #3E3123",
"<  c #24333C",
"1  c #252E36",
"2  c #563517",
"3  c #481823",
"4  c #54152A",
"5  c #5E1B3A",
"6  c #581832",
"7  c #6D1720",
"8  c #68102C",
"9  c #48242A",
"0  c #4A3A26",
"q  c #542934",
"w  c #5C262F",
"e  c #6A2A39",
"r  c #6C3834",
"t  c #6F272E",
"y  c #61171A",
"u  c #5B442A",
"i  c #68482B",
"p  c #6A5027",
"a  c #152F44",
"s  c #183144",
"d  c #293B48",
"f  c #7B3C51",
"g  c #733543",
"h  c #294358",
"j  c #304759",
"k  c #344D63",
"l  c #345672",
"z  c #7B465C",
"x  c #6C5250",
"c  c #6E4962",
"v  c #744A64",
"b  c #830B1C",
"n  c #950727",
"m  c #851829",
"M  c #B10C37",
"N  c #862736",
"B  c #8E2831",
"V  c #B5243E",
"C  c #C0063D",
"Z  c #BB671A",
"A  c #9D4D2B",
"S  c #934C36",
"D  c #A65535",
"F  c #AE5234",
"G  c #A26324",
"H  c #C76F1E",
"J  c #D87A1B",
"K  c #C5711D",
"L  c #C8772C",
"P  c #A90A46",
"I  c #983D4B",
"U  c #BC314E",
"Y  c #A93A56",
"T  c #B63755",
"R  c #AD2F48",
"E  c #C40947",
"W  c #D60858",
"Q  c #C8144D",
"!  c #C52A57",
"~  c #C73A5B",
"^  c #DD0C61",
"/  c #E20D65",
"(  c #E21267",
")  c #EF1477",
"_  c #F3187E",
"`  c #F4157B",
"'  c #E4387A",
"]  c #D72C66",
"[  c #875F5D",
"{  c #A6514F",
"}  c #916F4F",
"|  c #A8695A",
" . c #9C4D64",
".. c #BB4F74",
"X. c #AA536C",
"o. c #C84467",
"O. c #C7556B",
"+. c #D64C73",
"@. c #D94D75",
"#. c #D45478",
"$. c #CF5071",
"%. c #CF6179",
"&. c #7C8160",
"*. c #D89833",
"=. c #C8873D",
"-. c #EA9322",
";. c #E19237",
":. c #EBA736",
">. c #F0AE36",
",. c #B88E48",
"<. c #BC9A56",
"1. c #BE9C58",
"2. c #B09048",
"3. c #B6A761",
"4. c #8C896F",
"5. c #CC8C49",
"6. c #E2834E",
"7. c #D1B158",
"8. c #EAB753",
"9. c #F4BF60",
"0. c #F4D666",
"q. c #F3DE78",
"w. c #EDC466",
"e. c #F7C74D",
"r. c #09548F",
"t. c #1F6A89",
"y. c #326D8C",
"u. c #0166B3",
"i. c #0369B7",
"p. c #0A71B3",
"a. c #397DA4",
"s. c #287BB5",
"d. c #F81880",
"f. c #F81780",
"g. c #F62B8A",
"h. c #F4378C",
"j. c #AE6C8E",
"k. c #DB5D85",
"l. c #E15883",
"z. c #F64699",
"x. c #E44180",
"c. c #CF6E8C",
"v. c #EB6896",
"b. c #ED6C9B",
"n. c #E66794",
"m. c #E6638F",
"M. c #EC74A3",
"N. c #EA79A8",
"B. c #F172A2",
"V. c #F37BAB",
"C. c #F073AB",
"Z. c #F27EB1",
"A. c #0E8CAC",
"S. c #1689A9",
"D. c #0399BE",
"F. c #3982AF",
"G. c #35AAB1",
"H. c #429C9D",
"J. c #4386AF",
"K. c #42ACAF",
"L. c #7EB8A3",
"P. c #55C1B6",
"I. c #7BD2B2",
"U. c #0698C6",
"Y. c #0F95C2",
"T. c #1DA6C9",
"R. c #0FB8DB",
"E. c #21A8D4",
"W. c #14BEE2",
"Q. c #28BDE3",
"!. c #2BC0D6",
"~. c #14C1E5",
"^. c #1BC7E9",
"/. c #1ECCEC",
"(. c #1DCFF1",
"). c #1DD0F1",
"_. c #20D1F1",
"`. c #26C7E6",
"'. c #73D8D3",
"]. c #7BE1F3",
"[. c #49C8C9",
"{. c #B29F9D",
"}. c #B5BF82",
"|. c #E1809F",
" X c #DB83A5",
".X c #EB88B8",
"XX c #F483B3",
"oX c #F58ABC",
"OX c #F685BB",
"+X c #D2BC8F",
"@X c #F5DE8B",
"#X c #ECE285",
"$X c #F1E78C",
"%X c #F2EE92",
"&X c #F4F5B3",
"*X c #F4F5BE",
"=X c #F2F4AE",
"-X c #D0D0AC",
";X c #F88BCA",
":X c #F688C3",
">X c #E191C4",
",X c #F893C4",
"<X c #F596CA",
"1X c #F896C9",
"2X c #F696CA",
"3X c #F69CD3",
"4X c #F89ED5",
"5X c #E58FC0",
"6X c #F8A1D9",
"7X c #F8A0D6",
"8X c #EBB5D6",
"9X c #DEC4D3",
"0X c #F5F4CB",
"qX c #F4F4D3",
"wX c #F8F8F6",
"eX c #F9F8F8",
"rX c #F8F6F2",
/* pixels */
"                                                                ",
"                        < ; ; ; ; ; <                           ",
"                    = < J.Y.D.D.D.D.J.< = =                     ",
"                @ h F.A.Q././.^.`.^.`.T.A.F.k = X               ",
"              k y.S.Q.~.(._.).(._._._.).~.`.A.t.l               ",
"            j a.E.W./._.(.W.P.I.'.].].].].].[.{.4.p             ",
"          d a.E.W.(.).(.[.K.}.@X0XeXeXeXeXeX0X@Xw.5.u           ",
"        : a.T.W.(./.!.G.7.$XqXrXeXeXeXeXeXeXeXrXqX%X7.u         ",
"        1 S.W.(.W.H.,.7.#X0XrXeXeXwXrXrXeXwXeXeXeXqX#X,.0       ",
"      1 y.D.W.W.H.,.>.q.0X0X&X&X&X&X&X=X&X&X&X&X&X&Xq.8.0       ",
"      - s.U.R.K.2.>.0.%X@X9.7.<.<.<.7.<.<.<.1.7.8.8.0.>.G 0     ",
"      h u.U.U.&.-.e.q.w.*.H A { | { r { { | S D 6.6.*.:.*.u     ",
"    d F.p.U.p.} -.>.*.H D S %.V.8X{.r .X3X9X[  .7X.XD H J u     ",
"    s i.i.i.} J -.K A A #..X2X6Xj.. & >X3Xx O v 6X3X XD L u     ",
"    a u.i.i.} J Z A #. XoX7X7X6Xj.# & >X3Xg O c 6X7X5XO.r ,     ",
"    a u.i.i.x Z D %.Z.4X6X6X7X6Xc.y & >X3XY # c 6X6X3Xn.g >     ",
"    s i.u.r.z | c.OX;X4X6X6X6X4XM.N & >X4X$.3 c 6X6X3XV.{ *     ",
"    s r.r.& X.oX4X4X1X6X4X;X;X;XC.Y 3 >X4Xn.5 I ;X3X3X:Xo.w &   ",
"    , r o m n.3X4X6X4X6X4Xz.g.g.h.k.T <X4XZ.o.! z.C.<X<XoX .9 . ",
"  u ,.1.@ Y XX6X6X6X6X6X6X;XOX:X;X;X5X3X4X;X5X:X;X3X3X<X,Xk.e . ",
". p w.-X@ ..XX7X4X,XOX1X6X6X6X7X6X6X6X6X3XN.:X6X6X6X3XXXoXB.z . ",
"o p 9.+X@ ..XX1X1XXXv.XX1X6X6X6X4X6X6X4X<XN.5X6X7X4X1XC.XXb.f . ",
"  i =.*.2 { v.oXoXn.+.B.oX3X7X6X6X6X6X6X3X6X6X6X6X3XOXb.m.$.r o ",
"    0 =.Z 7 T k.k.~ ! b.oX3X6X6X6X6X4X6X4X4X6X4X4X1Xb.@.o.{ 9 o ",
"      0 $ + r N B V ! b.V.oX,X1X4X6X6X4X6X4X4X3XoXM.@.U m 3 @   ",
"            > 7 M E Q @.b.V.V.oX1X1X1X1X1X1XoXV.V.m.! C n t 0   ",
"            6 P / / ( ' ' b.B.V.XXXXZ.Z.XXXXN.b.l.o.Q ^ W V 3 X ",
"          3 P g.h.d.d.` / ' m.b.B.B.B.b.B.B.b.#.U M ^ ` ` E 8 X ",
"        + n ^ oXOX_ _ d._ ^ ] l.v.b.b.v.m.m.#.R b M ) ) ) / 8 & ",
"        + n ( g.g._ _ _ _ ) ^ Q ~ +.+.+.U N 7 b M E W W M B 9 o ",
"        X 3 6 5 5 5 5 5 5 5 6 3 9 q q q 3 * + # 4 4 4 4 3 * >   ",
"        X X X X X X @ X X X X X X o o . X X X . o o . . X X     "
};
