/* XPM */
static char *_d302a400bf642b8dc3f96553f97947ayOVOx4X4fGb1DA0Y[] = {
/* columns rows colors chars-per-pixel */
"60 60 138 2 ",
"   c #040B1D",
".  c #050E21",
"X  c #0B1122",
"o  c #161727",
"O  c #261725",
"+  c #271926",
"@  c #281A27",
"#  c #2B1E2C",
"$  c #2C212E",
"%  c #2E2431",
"&  c #332734",
"*  c #342C39",
"=  c #35313E",
"-  c #732C2C",
";  c #782C2C",
":  c #752F31",
">  c #763333",
",  c #7B3333",
"<  c #7C3D3E",
"1  c #383A46",
"2  c #393C49",
"3  c #74494E",
"4  c #784A51",
"5  c #862F2D",
"6  c #892F2D",
"7  c #87312E",
"8  c #88312E",
"9  c #873433",
"0  c #893533",
"q  c #8C3936",
"w  c #833F3E",
"e  c #8E3C39",
"r  c #913E3C",
"t  c #8F403E",
"y  c #91403E",
"u  c #844243",
"i  c #8C4545",
"p  c #8B4B4D",
"a  c #944542",
"s  c #954947",
"d  c #984947",
"f  c #974A48",
"g  c #9A4B49",
"h  c #9D504F",
"j  c #875356",
"k  c #885457",
"l  c #8A5558",
"z  c #86585B",
"x  c #8C5C5D",
"c  c #945656",
"v  c #9F5150",
"b  c #945A5B",
"n  c #9A5E5E",
"m  c #A25554",
"M  c #A45957",
"N  c #A65E5C",
"B  c #A85F5E",
"V  c #A7605E",
"C  c #A9605E",
"Z  c #8A6367",
"A  c #9F6666",
"S  c #9F6867",
"D  c #937679",
"F  c #92787B",
"G  c #9A7D7F",
"H  c #A06767",
"J  c #AD6564",
"K  c #A16867",
"L  c #AF6867",
"P  c #AF6768",
"I  c #A26C6B",
"U  c #AE6868",
"Y  c #B16766",
"T  c #B06867",
"R  c #B16B6A",
"E  c #B56C6B",
"W  c #B66C6B",
"Q  c #B96E6C",
"!  c #B4706F",
"~  c #A77877",
"^  c #A97B7A",
"/  c #A97E7D",
"(  c #AA7F7D",
")  c #B47575",
"_  c #B37E7F",
"`  c #AA807E",
"'  c #B7807F",
"]  c #9D8082",
"[  c #978F92",
"{  c #9B989C",
"}  c #AC8281",
"|  c #AE8584",
" . c #A78888",
".. c #AF8C8B",
"X. c #B68080",
"o. c #B78180",
"O. c #B78181",
"+. c #B08D8D",
"@. c #B98B8C",
"#. c #B7918F",
"$. c #B29090",
"%. c #BC9696",
"&. c #BC9997",
"*. c #B59898",
"=. c #BD9999",
"-. c #9C9DA0",
";. c #A8A3A5",
":. c #ACAAAB",
">. c #BDAAA9",
",. c #B4B3B3",
"<. c #C39E9C",
"1. c #C0A4A3",
"2. c #C3ADAC",
"3. c #C3B1AF",
"4. c #C7BAB9",
"5. c #C7BABA",
"6. c #C6BDBC",
"7. c #C8B9BA",
"8. c #C8BABA",
"9. c #CABDBC",
"0. c #C9BFBE",
"q. c #C7C0BF",
"w. c #C9C1BF",
"e. c #C8C2BF",
"r. c #C7C1C0",
"t. c #C8C2C0",
"y. c #C9C4C2",
"u. c #CAC6C4",
"i. c #CBC8C6",
"p. c #CFCAC8",
"a. c #CDCBCA",
"s. c #CDCDCA",
"d. c #CDCECB",
"f. c #CDCECC",
"g. c #CECECC",
"h. c #D0CECB",
"j. c #CFD0CD",
"k. c #D1D1CE",
/* pixels */
". .     . . . . . . . . . . . . .               . .   . .   . . . . . . . . . . . . . . . . . . . . . . . . . .   . . X ",
"% & & & & & & & & & & & & & & & & & = 1 2 1 * & & & & & & & & & & & & & & * & & & * & & & & & & & & & * & & & & & & $ o ",
"4 j j j k k k k j j j j j j j k j l F { -.[ Z j j j j j k k k k j k k k k j k k j j k k l k j j l k k k j l j j k l 3 $ ",
"H Y W W W W W W W W W W W W T W W ! <.p.k.9.o.U W W W W W W W W W W W W W W E E E W W W E R E W W W W W W R W W W Q n & ",
"n L L L U Y T U P P T T Y Y Y Y J T &.y.s.4._ L J L L L L L L Y P U U U T P R T P R U U U U U U L R U J P J P P J T b & ",
"c N C V C V V V B J B C B B B M m N #.t.s.4.' L J V V V V V V V N J N V J B B B B B N J N J V J J V C J N J V N V V k % ",
"i f g h h g g h g g g g v g d r q t } e.s.4.o.U U V h s h g g h g h v g g g g g g g v g g g v g g g g g h g g v h h u $ ",
"u f g f f g g g g g g g g g r q 5 q / e.s.4.' Y W V h a f f d d f f f g g f d g g g f g f g g f g g g f g g s f f f t @ ",
"u f f f g g g g g g g g d g a q 9 q / t.g.4.' R U V v f f f s d d g d g g g g g g g g g g g g g g g g g g g g g g g u # ",
"i f g g g g g g g g g g g g r q 7 q ` t.g.8.o.J L C g f f f f f g g g g g g g g g g g g g g g g g g g g g g g f f g u $ ",
"u f g f g g g g g g g g g g r q 5 q / t.g.4.X.P T N g g g d s s d d d g g g d g g g g g g g g g g g g g g g g g d g t @ ",
"u f g g g g g g g g g g g g a q 9 q ` t.g.4.o.Y T J v f g d d f s s g g d g g g g g g g g g g g g g g g g g g g d g 3 $ ",
"u g g g g g g g g g g g g g a 0 7 q ` t.g.8.o.Y T B g d g g d d f a f s g d d g g g g g g g g g g g g g g g g g d g 3 @ ",
"u g g g g g g g g g g g g g a q 7 q ` t.g.8.o.R W B v g g g d g g s f s d g d g d g d g g g g g g g g g g g g g g g t $ ",
"u g g g g g g g g g g g g g a 0 7 e ` t.g.8.o.T T B v g g d g g d g f f a g d g d g g g d g g g g g g g g g g g g g t $ ",
"i g g g g g g g g g g g g g a 0 7 q ` t.g.4.o.T R B g d g g d g g g d g f s s g g d g g g g g g g g g g g g g g g g u $ ",
"i f g g g g g g g g g g g g r q 7 q ` y.g.8.o.Y T J v g g g g g g g g g g f f f s g g g g d g g g g g g g f g g d g t # ",
"u g g g g g g g g g g g g g a q 7 e ` t.g.8.o.Y T B g g g g g g g g g g g f g a s f g d g g g g g g g g g g g g d d 3 # ",
"u f g g g g g g g g g g g g a q 9 q ` t.g.8.X.R T N g g g g g g g g f g g g g f f a a g d g d g g g g g g g g g d g 3 @ ",
"i f g g g g g g g g g g g g a q 7 q ` t.g.4.o.T T J v g g g g g g g g g g g g g f f f f f g d g g g g g g g g g g g r # ",
"u f g g g g g g g g g g g g y 0 7 q ` t.g.4.o.J R B g g g g g g g g f g g g g g g f s s d g d g d g g g g g g g g g t $ ",
"u f g f g g h g g g g g g g a 0 9 q ` t.g.4.o.P U B v f g g g g g f g g g g g g g g g s s s g d g d g g g f g f g g t $ ",
"u f f f g g g g g g g g g g a 0 7 q ` t.g.4.o.T T B g g g g g g g g g g g g g g g g g g d s s g f g g g g g g f g g < $ ",
"u g g g g g g g g g g g g g a q 7 q ` e.g.4.o.P T B v f g g f g g g f g f g g g g f g g g g s f f g g g g f g f g g u $ ",
"t i y a y y a a a a a a a a r q 7 q ` t.g.8.o.U T B g a a a a a a a a g a a d r a a a a a a a a t y t y f y y y a a w # ",
", q q q y q q y q e q q q q q 0 9 e / t.p.8.o.J R M r 0 0 q e q q e q q q 0 q e q q q q q q q q q t q q t 0 t t q e > @ ",
"; 7 7 7 7 7 8 8 9 7 9 7 6 9 6 8 5 0 / r.f.4._ P P m q 5 6 9 7 7 6 9 9 7 9 8 9 6 7 7 7 7 7 7 9 7 7 7 7 7 7 8 7 7 8 8 - + ",
"> 0 0 0 0 0 q q 0 0 0 0 0 q 0 q 9 e ` r.g.4.o.P W M r 0 0 0 0 0 0 0 0 0 0 0 0 0 0 q q 0 0 q 0 9 9 9 9 9 q 0 0 9 0 9 : @ ",
"x A A A H A A H A A A A A S S S A S *.y.s.0.=.@.@./ I S K S K S S S A S A A A S K A A A S A A A S S S S A n A A A H z % ",
":.6.r.r.e.t.e.e.r.r.r.r.r.r.r.r.9.r.y.i.i.u.u.r.r.r.r.0.9.r.t.0.r.r.r.r.t.t.r.r.e.e.t.t.r.r.r.r.q.q.q.q.e.6.6.6.e.u.;.1 ",
",.s.g.i.p.p.p.p.g.g.i.i.s.p.i.i.p.s.s.i.i.g.u.g.p.p.s.s.p.p.p.s.i.p.i.s.s.p.f.i.p.s.p.p.i.i.i.s.i.s.i.s.i.i.i.y.u.g.:.1 ",
",.u.i.u.u.u.i.u.i.i.i.i.i.i.u.i.i.i.i.i.u.u.u.p.u.u.i.i.i.i.u.u.i.i.i.i.i.u.i.i.u.u.i.u.i.i.i.i.i.i.i.i.i.i.i.i.y.i.:.1 ",
" .&.&.%.&.%.&.%.&.%.&.&.&.%.&.%.<.<.@.%.%.%.=.=.%.%.%.=.=.=.%.%.%.%.&.&.&.&.%.=.3.u.p.t.2.=.=.=.&.&.&.&.&.%.&.%.%.%.] = ",
"A U ) R ! ! R ) ) R ! ! R ) ! R Q Q R W R ! R W R ) R R ! W R ) R ) ! W ! R W U =.t.h.t.@.U R ) ! R R ! ) R ! R R ) b & ",
"n J J J Y Y T Y Y Y Y T T T T T Y Y Y Y P J T R T T T T Y T Y Y T Y Y Y Y Y Y Y %.e.s.9.@.J Y Y Y L Y T Y Y Y L Y T b % ",
"n U J R Y U T Y Y L Y Y T T T T Y Y Y Q P P T T T T T T Y Y P Y P U Y Y L L J Y %.t.s.t.@.J W Y Y L U Y L L L L U T b & ",
"p m m m m m m m m m m M m M m m m m m m m m m m m m M m m m m m m m m m v f a d | 0.h.9.@.L Y J M m m m m m m v m M p # ",
"u g g g g g g g g g g g g g g g g g g g g g g g g g g g g g g g g g g g a 0 8 0 ^ 9.g.e.@.Y T C h f g g g g g g d g u # ",
"u d g d f f g g d g g d g g g g g g g g g g g g g g g g g g g g g f d d a 0 8 9 ^ 6.k.9.@.L T J g g g f f f d d d g u # ",
"u g g g g g g g g g g g g g g g g g g g g g g g g g g g g g g g g g d d a 0 0 0 ^ 6.h.e.@.L U V h d g g g d d f d g u # ",
"t d g d g g g g g d g g g g g g g d g g d g g g g g g g d g g d g d g d a q 8 0 ~ 6.k.9.@.U T J h f d d g d g g d g 3 @ ",
"u g g g d g g g g g g g g g g g g g g g g g g g g g g g g g g g g g d g a 0 8 0 ^ 6.g.t.@.T L J h d g g d g d f g d w # ",
"u g g g g g g g g g g g g g g g g g v g g g g g g g g g g g g g g d g g d q 8 0 ^ 6.j.t.@.L U C v d g g g g g d d g u # ",
"u g g g g g g g g g g g g g g g g g g g g g g g g g g g g g v g g d d g a q 7 9 ^ 6.j.9.@.L L J h d g g g g g f g g u # ",
"u g g g g g g g g g g g g g g g g g g g g g g g g g g g g g g g g g g g d 0 7 0 ^ 0.j.9.@.U T J m d d g g g g g g g u # ",
"u g g g g g v g g g g g g g g g g g g g g g g g g g g g g g g g g g d g d q 7 0 ^ 0.j.t.@.T T C g d g g d g g g d g u # ",
"u f g g g g g g g g v g g g g g g g g g v g g g g g g g g g g g g g g g a 0 9 9 ^ 6.j.9.@.L T J v d g g g g g g g g u # ",
"u g g g g g g g g g g g g g g g g g g g g g g g v g g g g g g g g d g g s q 5 9 ^ 0.j.9.@.L P J v d g g g g g g g g u # ",
"u g g g g g g g g g g g g g g g g g g g g g g g g g g g g g g g g g g g d 0 0 6 ^ 6.j.9.@.U R J h f g g g g g g g g u # ",
"i g g g g g g g g g g g v g g g g g g g g v g g g g g g g g g g g d d g a q 0 0 ^ 6.j.0.@.U J N g f d g g g g g g g u # ",
"u f g g g g g g g g g g g g g g g g g g g g g g g g g g g h g g g d g g d q 6 0 ^ 6.g.0.@.U E J v d g g g g g g g g u # ",
"i f g g g g g g g g g g g g g g g g g g g g g g g g g g g g g g g g g g a q 8 0 ^ 0.j.0.@.U U J h g g g g d g f f g u # ",
"u d g g g d g g g g g g g g g g g g d g g g g d g g d g g g g g g d d g a q 6 0 ^ 6.g.0.@.L T B g a g g d d g f g g u # ",
"u d g g g g g g g g g g g g g g g g g g g g g g g g g g g g g g g g g g a q 0 6 ^ 6.g.9.@.U T J v d g g g g g d g g u @ ",
"i d g g g g d g g g g g g g g g g g d g d d g g g g g g g g g g d d d d a q 0 0 ^ 6.g.9.@.L Y B v g g g g g g f g g u # ",
", e e e e r e e q r r q r e e t r r q r r r r r r q r r q r e e r r r q r 0 0 6 ^ t.g.9.@.L W N a q r e e q r q e r , O ",
": 0 0 0 0 0 0 0 0 0 0 0 9 0 0 0 6 0 0 0 9 0 0 0 0 0 0 0 9 0 0 9 0 9 9 9 9 9 0 0 ~ 6.j.9.@.J W M r 8 0 0 9 9 0 5 0 0 : + ",
"; 5 5 5 5 5 5 5 5 5 5 5 5 5 5 5 6 6 6 6 5 5 5 5 5 5 5 9 5 5 5 5 6 6 5 6 5 7 7 5 ~ 6.s.e.@.J Y m q 5 5 5 5 5 5 5 5 8 - O ",
"< s s i p a s s s s p f s a p s s s s a a s p s s s p s s s a p i s a a a s i s | 9.g.e.%.) ) I h i s s a s a p p f < @ ",
"G ..+.........+...+.+.+.+.+.+.....+.+.+.+.+.+.....+.+...+.+.+...+.......+.+.+.+.>.y.s.y.3.1.1.=.$.........+.+...+.+.D * "
};
