/* XPM */
static char *d2794aad8b73414acd766f7949132643dUAhFruTYHvdxtV8[] = {
/* columns rows colors chars-per-pixel */
"60 60 147 2 ",
"   c None",
".  c #000000",
"X  c #0B0B0B",
"o  c #080608",
"O  c #0E100E",
"+  c #17120C",
"@  c #19140F",
"#  c #141414",
"$  c #1B1610",
"%  c #1D1913",
"&  c #1A1A1A",
"*  c #231C15",
"=  c #372B1F",
"-  c #271727",
";  c #242424",
":  c #2C2C2C",
">  c #2A2526",
",  c #3A2E22",
"<  c #3E3225",
"1  c #323232",
"2  c #3B3B3B",
"3  c #3E313E",
"4  c #493A2B",
"5  c #423527",
"6  c #453B32",
"7  c #613939",
"8  c #3E403F",
"9  c #69543F",
"0  c #61365E",
"q  c #5F3A60",
"w  c #663D65",
"e  c #693E69",
"r  c #424243",
"t  c #4B4C4B",
"y  c #464846",
"u  c #5E4D5E",
"i  c #545454",
"p  c #5C5C5C",
"a  c #624B62",
"s  c #614361",
"d  c #636363",
"f  c #6A6A6A",
"g  c #686363",
"h  c #737373",
"j  c #7C7D7D",
"k  c #9D2665",
"l  c #C42574",
"z  c #885C5C",
"x  c #886D51",
"c  c #927557",
"v  c #947658",
"b  c #997A5B",
"n  c #927777",
"m  c #AE7B7B",
"M  c #CE7B7B",
"N  c #D17C7C",
"B  c #A58462",
"V  c #B9956F",
"C  c #C69F75",
"Z  c #D2A97D",
"A  c #7F4C80",
"S  c #FF3297",
"D  c #FF349A",
"F  c #FF399F",
"G  c #FF3CA2",
"H  c #FF3FA8",
"J  c #804D81",
"K  c #8A528A",
"L  c #975A97",
"P  c #9E5998",
"I  c #AE68AF",
"U  c #A864A8",
"Y  c #B26CB2",
"T  c #C44D9B",
"R  c #C45BAA",
"E  c #FF44AA",
"W  c #FF4EB5",
"Q  c #FF55BB",
"!  c #FF59BF",
"~  c #C462B1",
"^  c #FF5BC3",
"/  c #C475C4",
"(  c #CC79CC",
")  c #E46BC7",
"_  c #FF60C6",
"`  c #FF6EC7",
"'  c #FF65CB",
"]  c #FF69CF",
"[  c #FF6BD3",
"{  c #FF70D7",
"}  c #FF75DC",
"|  c #FF7CE2",
" . c #838383",
".. c #8B8B8B",
"X. c #949494",
"o. c #969898",
"O. c #999999",
"+. c #AF8585",
"@. c #A29A9A",
"#. c #B99898",
"$. c gray63",
"%. c #A9A9A9",
"&. c #B4B4B4",
"*. c gray73",
"=. c #C58F8F",
"-. c #C39999",
";. c #C49797",
":. c #DB9999",
">. c #EF9898",
",. c #F19999",
"<. c #FF9999",
"1. c #DAAE82",
"2. c #DEB284",
"3. c #E2B486",
"4. c #E6B889",
"5. c #E7B590",
"6. c #CC8AAA",
"7. c #FFBFB1",
"8. c #FFB9BD",
"9. c #F7C592",
"0. c #FFCD97",
"q. c #FFCC99",
"w. c #F8C694",
"e. c #FFD19B",
"r. c #FFC5A5",
"t. c #FFC8A5",
"y. c #FFC3AA",
"u. c #D983DA",
"i. c #FFB6C4",
"p. c #FFB1CD",
"a. c #FFADD5",
"s. c #FFAADB",
"d. c #FFB0D9",
"f. c #E287E2",
"g. c #E98BE9",
"h. c #FF84EB",
"j. c #FF88EF",
"k. c #F08FF0",
"l. c #FF8BF2",
"z. c #FF91F7",
"x. c #FF9EF3",
"c. c #FF95FD",
"v. c #FF99FF",
"b. c #FFA5E5",
"n. c #FFA2EB",
"m. c #FFA0F3",
"M. c #FDFDFD",
/* pixels */
"                                                                                                                        ",
"                              . . . . . . . . . . . . . . . . . . . . . . . . . . . . .                                 ",
"                              . . . . . . . . . . . . . . . . . . . . . . . . . . . . . .                               ",
"                              . . . . . . . . . . . . . . . . . . . . . . . . . . . . . .                               ",
"                            # x c c c c c c c c c c c c c c c c c c c c c c c c c c c v 9 .                             ",
"                          . $ 4.e.e.e.e.e.e.e.q.e.e.e.q.e.e.e.e.e.q.e.e.e.e.e.q.e.e.e.e.b .                             ",
"                          % , 4.0.q.r.t.t.y.y.y.r.r.r.r.r.r.t.r.r.r.r.y.t.r.r.r.r.q.q.0.B %                             ",
"                      . @ Z 9.q.0.q.b.v.x.x.x.x.v.x.v.x.x.v.x.x.v.x.x.x.v.x.v.x.n.t.q.q.w.4., .                         ",
"                      . @ 2.0.0.0.q.n.v.v.v.c.v.v.v.v.v.v.v.v.v.v.v.v.v.v.v.v.c.x.t.0.0.0.w., .                         ",
"                      . @ 2.0.0.q.r.n.v.v.v.v.v.v.v.v.v.z.v.v.v.c.c.v.v.c.v.v.v.x.7.q.q.0.w., .                         ",
"                      . @ 2.0.0.8.x.c.v.c.v.v.v.v.v.v.^ Q c.v.v._ W z.v.v.v.v.v.v.x.p.0.q.w., .                         ",
"                      . @ 2.e.0.i.v.v.v.v.v.v.v.v.v.c.E E z.v.v.! H v.v.v.v.c.v.v.c.a.0.0.w., .                         ",
"                      . @ 2.q.8.s.v.| { z.v.v.v.v.v.c.] ] c.v.v.T k P I z.v.v.v.v.c.n.8.y.w., .                         ",
"                      . @ 2.t.x.v.z.E D h.v.v.v.v.v.v.v.v.v.v.v.q . . - g.v.v.v.v.v.v.c.a.9., .     . . .               ",
"                      . @ 2.t.x.v.z.E D h.v.v.v.v.c.v.v.v.v.v.v.q . . - k.v.v.v.v.v.v.c.a.9., .     . . .               ",
"                      . @ 2.t.x.v.v.^ W j.v.c.v.v.v.v.v.v.v.u./ s ; ; 3 Y f.v.h.| c.v.v.a.w., .     ; > ;               ",
"                      . @ 2.t.x.v.v.v.v.v.v.v.v.v.v.v.c.v.v.e . p O.O. .X f c.H G l.v.v.a.w., . . : X.X.X.1 .           ",
"                      . @ 2.t.x.v.v.v.v.v.c.v.c.v.v.v.v.v.v.w . p @.O.L o A c.E D l.v.v.a.w., . . : X.O.O.: .           ",
"                      . @ 2.t.x.v.v.v.c.v.v.c.v.c.v.v.v.v.v.e . p O.O.X.f u 0 ) | z.v.v.a.w., & d h X.O.X.: .           ",
"                      . @ 2.t.x.c.v.v.v.v.v.v.v.v.v.v.v.v.v.w . p O.O.o.$.y o u.v.v.v.v.a.w., ; O.o.O.O.O.1 .           ",
"                      . @ 2.t.x.v.v.v.v.v.c.v.v.v.l.h.c.v.v.w . p $.o.o.o.p > Y ( ( ( ( 6.C 6 2 O.O.X.O.X.: .           ",
"      . . .           . @ 2.t.x.v.v.v.v.v.v.c.v.v.W D | v.v.e . p $.o.o.o.o...* o o o o o o h O.O.O.O.O.O.1 .           ",
"      . . .           . @ 2.t.x.v.v.v.c.v.c.v.v.v.W S | v.v.w . p @.o.o.o.O...& . . . . . . h O.O.O.X.O.o.: .           ",
"      X # X           . @ 2.t.x.c.v.v.v.v.v.v.v.v.! G h.v.v.w . p O.O.o.o.O...; X O O O O # j O.O.X.O.O.o.: .           ",
"  . ;  .....1 .       . @ 2.t.x.v.v.v.v.v.v.v.v.v.z.l.v.v.v.w . p O.O.O.O.O.X...............X.O.X.O.O.O.X.: .           ",
"  . : X.o.o.1 .       . @ 2.t.x.c.v.v.v.v.v.v.c.v.v.v.v.v.v.e . d O.O.O.O.X.O.O.X.O.X.O.X.O.O.O.O.O.O.X.O.: .           ",
"  . : X.o.o.1 . .     . @ 2.t.x.v.v.v.v.[ | v.v.v.v.v.v.f.K a y j O.o.o.O.O.O.O.O.O.X.O.O.O.O.X.X.O.X.O.o.d 6 o         ",
"  . : X.o.o.1 . . . . . @ 2.t.x.v.v.v.z.H W v.v.v.v.v.v./ . p O.O.o.O.o.O.X.O.X.O.X.O.O.O.X.O.O.O.O.O.O.o.$.j o .       ",
"  . : o.O.O.: . . . . . @ 2.t.x.c.v.v.z.E W v.v.v.v.v.v.( o p o.O.o.o.o.o.O.O.o.O.X.O.O.O.X.o.O.o.O.O.o.O.o.j o .       ",
"  . ; d ..O.i : 1 1 1 # @ 2.t.x.v.v.v.c.^ ] v.v.v.v.v.| R o p o.o.O.o.O.*...f X.O.O.X.O.o.o.o.$.*.$.d ..O.o.j o .       ",
"      . d O.O.O.O.O.O.r + 2.t.x.c.v.v.v.v.v.v.v.v.v.v.W l o p o.O.o.o.%.M.j o j O.O.O.O.O.O.O.&.M.&.. f O.O.j o .       ",
"      . d O.O.O.O.o.O.r + 2.t.x.v.v.v.c.v.v.v.v.v.v.z.W l o p O.o.O.o.%.M.j o n o.O.X.O.O.X.X.&.M.&.. f O.O.j o .       ",
"        ; ; ; 2 X.X.O.y @ 2.t.x.| W h.v.v.v.v.v.v.v.v.j.~ o p O.o.o.O...y & X j O.O.O.O.f > j  .r : . d O.O.j o .       ",
"        . . . # ..o.o.r + 2.t.x.[ D | v.v.v.v.v.c.v.v.v./ o p o.O.O.o.n o . X  .O.O.O.O.p . h h . . . d O.O.j X .       ",
"        . . . & X.O.o.r + 2.t.x.[ D | v.v.v.v.v.v.v.v.v./ o p O.O.O.o.A X . X j O.O.O.O.p . h h . . . d O.$.j o .       ",
"                2 2 2 & @ 2.t.x.j.} z.v.v.v.v.v.v.v.v.v./ o p O.#.-.5.-.g p d X.O.O.o.o.j d ....d d d +.:.:.m o .       ",
"                . . . . $ 2.t.x.v.v.v.c.v.v.v.v.v.v.v.v./ o p O.:.<.<.>.@.O.O.O.o.o.o.o.O.O.O.O.O.$.O.:.<.<.N o .       ",
"                . . . . @ 2.t.x.v.v.v.v.v.v.v.c.j.z.v.v./ o p O.:.<.<.>.@...j X.o.o...B ..O.o.X.n  .o.:.<.<.N X .       ",
"                      . @ 2.t.x.v.v.v.v.v.v.v.} G | v.v./ o p o.:.<.<.>.@.i O  .$.o.d . r O.O.h o 1 O.:.<.<.M X .       ",
"                      . @ 2.t.x.v.v.v.v.v.v.v.} S | v.v./ . p O.:.<.<.>.@.t o  .o.$.p . 8 O.O.h . : X.:.<.<.N X .       ",
"                      . @ 2.q.i.s.c.] ^ z.v.v.l.[ l.v.v.f.L a 8 n -.;.#.O.t . 2 r r > . & r r : . : X.#.;.z 7           ",
"                      . @ 2.0.0.i.c.E D h.v.v.v.v.v.v.v.v.v.e . p O.o.o.O.t . . o o . . . . . . . : X.O.o.: .           ",
"                      . @ 2.e.0.p.v.E D h.v.v.v.v.v.v.v.v.v.w . p $.o.o.$.t . . . . . . . . . . . : O.O.O.1 .           ",
"                      . @ 2.0.0.y.a.` ^ l.v.v.v.v.v.v.v.v.v.U e a d X.o.o.f 6 r r r r r r 8 r r 2 p O.f i ;             ",
"                  . . . @ 3.0.0.q.q.n.v.v.v.v.v.v.x.v.v.v.v.v.v.w O ..o.o.o.O.o.O.o.O.O.O.o.o.O.o.O.o.1 .               ",
"                  o o . @ Z w.0.q.q.n.v.c.x.c.x.v.v.v.x.x.v.x.v.w %  .X...X.X.X.X.X.X...X.X.X.X...X.X.1 .               ",
"                . y  .2 . * 5 4.0.q.t.y.y.y.y.y.y.y.y.y.y.r.y.y.5.V ; & & & & & & & & & & & & & & & &                   ",
"                . i O.y . . $ 4.0.q.0.0.0.0.0.0.0.0.0.q.0.0.0.0.0.2.+ . . . . . . . . . . . . . . . .                   ",
"                . i O.y . . @ 3.0.0.0.q.q.0.q.0.0.q.q.0.q.0.0.q.0.1.+ . . . . . . . . . . . . . . . .                   ",
"              & d  .o. .d X o 5 4 4 4 4 4 4 4 4 4 4 4 4 4 4 4 4 4 < o . . . . . . . . . : f & .                         ",
"            . & X.o.O.O...# . . . . . . . . . . . . . . . . . . . . . . . . . . . . . . 2 o.; .                         ",
"            . & X.O.O. .f # . . # ; ; ; o . . . . . . . . . . . . o ; ; ; # . . . . X ; i X.; .                         ",
"            . & ..O.O.y .     . r o.o...& .                     . # ..o.o.t .     . 2 X.X.X.; .                         ",
"            . & X.O.O.y .     . r O.o.X.& .                     . & ..O.O.t .     . 2 o.o.X.; .                         ",
"            . # j  . .r .     . 2  ...j & .                     . # j  ...y .     . 1 .. . .& .                         ",
"            . . X X o         . o X X X                         . . o X o X           X X o . .                         ",
"            . . . . .         . . . . .                         . . . . . .           . . . . .                         ",
"                                                                                                                        ",
"                                                                                                                        ",
"                                                                                                                        "
};
